<svg width="56" height="57" viewBox="0 0 56 57" fill="none" xmlns="http://www.w3.org/2000/svg">
<rect y="0.390625" width="56" height="56" rx="28" fill="black"/>
<rect x="56" y="56.3906" width="56" height="56" rx="28" transform="rotate(180 56 56.3906)" fill="black"/>
<rect x="56" y="56.3906" width="56" height="56" rx="28" transform="rotate(180 56 56.3906)" fill="black"/>
<path d="M25.0564 34.5826C24.1071 34.5826 23.2751 34.3266 22.5604 33.8146C21.8564 33.292 21.3071 32.572 20.9124 31.6546C20.5178 30.7266 20.3204 29.6493 20.3204 28.4226C20.3204 27.196 20.5178 26.124 20.9124 25.2066C21.3071 24.2786 21.8564 23.5586 22.5604 23.0466C23.2644 22.5346 24.0911 22.2786 25.0404 22.2786C25.9898 22.2786 26.8164 22.5346 27.5204 23.0466C28.2244 23.5586 28.7738 24.2786 29.1684 25.2066C29.5738 26.124 29.7764 27.196 29.7764 28.4226C29.7764 29.6493 29.5791 30.7266 29.1844 31.6546C28.7898 32.5826 28.2351 33.3026 27.5204 33.8146C26.8164 34.3266 25.9951 34.5826 25.0564 34.5826ZM25.0564 33.1266C25.6964 33.1266 26.2511 32.9346 26.7204 32.5506C27.1898 32.156 27.5524 31.6066 27.8084 30.9026C28.0751 30.1986 28.2084 29.372 28.2084 28.4226C28.2084 27.4733 28.0751 26.6466 27.8084 25.9426C27.5524 25.2386 27.1844 24.6946 26.7044 24.3106C26.2351 23.9266 25.6804 23.7346 25.0404 23.7346C24.4004 23.7346 23.8458 23.9266 23.3764 24.3106C22.9071 24.6946 22.5391 25.2386 22.2724 25.9426C22.0164 26.6466 21.8884 27.4733 21.8884 28.4226C21.8884 29.3613 22.0164 30.1826 22.2724 30.8866C22.5391 31.5906 22.9071 32.14 23.3764 32.5346C23.8564 32.9293 24.4164 33.1266 25.0564 33.1266ZM33.6746 34.3906V23.8306H31.4186V22.4706H35.2586V34.3906H33.6746Z" fill="#FFC501"/>
</svg>
