<svg width="56" height="57" viewBox="0 0 56 57" fill="none" xmlns="http://www.w3.org/2000/svg">
<rect x="56" y="56.3906" width="56" height="56" rx="28" transform="rotate(180 56 56.3906)" fill="black"/>
<rect x="56" y="56.3906" width="56" height="56" rx="28" transform="rotate(180 56 56.3906)" fill="black"/>
<rect x="3" y="3.39062" width="50" height="50" rx="25" fill="#FFC501"/>
<path d="M23.3221 34.5826C22.3727 34.5826 21.5407 34.3266 20.8261 33.8146C20.1221 33.292 19.5727 32.572 19.1781 31.6546C18.7834 30.7266 18.5861 29.6493 18.5861 28.4226C18.5861 27.196 18.7834 26.124 19.1781 25.2066C19.5727 24.2786 20.1221 23.5586 20.8261 23.0466C21.5301 22.5346 22.3567 22.2786 23.3061 22.2786C24.2554 22.2786 25.0821 22.5346 25.7861 23.0466C26.4901 23.5586 27.0394 24.2786 27.4341 25.2066C27.8394 26.124 28.0421 27.196 28.0421 28.4226C28.0421 29.6493 27.8447 30.7266 27.4501 31.6546C27.0554 32.5826 26.5007 33.3026 25.7861 33.8146C25.0821 34.3266 24.2607 34.5826 23.3221 34.5826ZM23.3221 33.1266C23.9621 33.1266 24.5167 32.9346 24.9861 32.5506C25.4554 32.156 25.8181 31.6066 26.0741 30.9026C26.3407 30.1986 26.4741 29.372 26.4741 28.4226C26.4741 27.4733 26.3407 26.6466 26.0741 25.9426C25.8181 25.2386 25.4501 24.6946 24.9701 24.3106C24.5007 23.9266 23.9461 23.7346 23.3061 23.7346C22.6661 23.7346 22.1114 23.9266 21.6421 24.3106C21.1727 24.6946 20.8047 25.2386 20.5381 25.9426C20.2821 26.6466 20.1541 27.4733 20.1541 28.4226C20.1541 29.3613 20.2821 30.1826 20.5381 30.8866C20.8047 31.5906 21.1727 32.14 21.6421 32.5346C22.1221 32.9293 22.6821 33.1266 23.3221 33.1266ZM29.9562 34.3906V33.3026L33.2522 29.7346C33.9029 29.0413 34.4202 28.4706 34.8042 28.0226C35.1989 27.5746 35.4869 27.1746 35.6682 26.8226C35.8495 26.4706 35.9402 26.0973 35.9402 25.7026C35.9402 25.052 35.7482 24.5506 35.3642 24.1986C34.9802 23.8466 34.4735 23.6706 33.8442 23.6706C33.2042 23.6706 32.6602 23.8573 32.2122 24.2306C31.7642 24.5933 31.4549 25.1106 31.2842 25.7826L29.8602 25.4146C29.9989 24.7746 30.2549 24.22 30.6282 23.7506C31.0015 23.2813 31.4655 22.9186 32.0202 22.6626C32.5749 22.4066 33.1829 22.2786 33.8442 22.2786C34.5695 22.2786 35.2042 22.4226 35.7482 22.7106C36.3029 22.988 36.7349 23.3773 37.0442 23.8786C37.3642 24.38 37.5242 24.9613 37.5242 25.6226C37.5242 26.06 37.4335 26.4866 37.2522 26.9026C37.0709 27.3186 36.8042 27.7613 36.4522 28.2306C36.1002 28.6893 35.6415 29.2226 35.0762 29.8306L32.1322 33.0306H37.7802V34.3906H29.9562Z" fill="black"/>
</svg>
