<svg width="56" height="57" viewBox="0 0 56 57" fill="none" xmlns="http://www.w3.org/2000/svg">
<rect y="0.390625" width="56" height="56" rx="28" fill="black"/>
<rect x="56" y="56.3906" width="56" height="56" rx="28" transform="rotate(180 56 56.3906)" fill="black"/>
<rect x="56" y="56.3906" width="56" height="56" rx="28" transform="rotate(180 56 56.3906)" fill="black"/>
<path d="M23.2283 34.5826C22.279 34.5826 21.447 34.3266 20.7323 33.8146C20.0283 33.292 19.479 32.572 19.0843 31.6546C18.6896 30.7266 18.4923 29.6493 18.4923 28.4226C18.4923 27.196 18.6896 26.124 19.0843 25.2066C19.479 24.2786 20.0283 23.5586 20.7323 23.0466C21.4363 22.5346 22.263 22.2786 23.2123 22.2786C24.1616 22.2786 24.9883 22.5346 25.6923 23.0466C26.3963 23.5586 26.9456 24.2786 27.3403 25.2066C27.7456 26.124 27.9483 27.196 27.9483 28.4226C27.9483 29.6493 27.751 30.7266 27.3563 31.6546C26.9616 32.5826 26.407 33.3026 25.6923 33.8146C24.9883 34.3266 24.167 34.5826 23.2283 34.5826ZM23.2283 33.1266C23.8683 33.1266 24.423 32.9346 24.8923 32.5506C25.3616 32.156 25.7243 31.6066 25.9803 30.9026C26.247 30.1986 26.3803 29.372 26.3803 28.4226C26.3803 27.4733 26.247 26.6466 25.9803 25.9426C25.7243 25.2386 25.3563 24.6946 24.8763 24.3106C24.407 23.9266 23.8523 23.7346 23.2123 23.7346C22.5723 23.7346 22.0176 23.9266 21.5483 24.3106C21.079 24.6946 20.711 25.2386 20.4443 25.9426C20.1883 26.6466 20.0603 27.4733 20.0603 28.4226C20.0603 29.3613 20.1883 30.1826 20.4443 30.8866C20.711 31.5906 21.079 32.14 21.5483 32.5346C22.0283 32.9293 22.5883 33.1266 23.2283 33.1266ZM33.7024 34.5826C33.0731 34.5826 32.4864 34.4706 31.9424 34.2466C31.3984 34.0226 30.9291 33.708 30.5344 33.3026C30.1398 32.8866 29.8464 32.396 29.6544 31.8306L30.9824 31.2866C31.2064 31.884 31.5584 32.348 32.0384 32.6786C32.5184 33.0093 33.0731 33.1746 33.7024 33.1746C34.1931 33.1746 34.6304 33.0786 35.0144 32.8866C35.3984 32.6946 35.6971 32.4173 35.9104 32.0546C36.1344 31.692 36.2464 31.2546 36.2464 30.7426C36.2464 30.22 36.1344 29.7826 35.9104 29.4306C35.6971 29.068 35.3984 28.7906 35.0144 28.5986C34.6304 28.4066 34.1878 28.3106 33.6864 28.3106C33.5264 28.3106 33.3504 28.3213 33.1584 28.3426C32.9771 28.364 32.8224 28.396 32.6944 28.4386L32.3584 27.7186L35.5424 23.8306H30.2624V22.4706H37.3184V23.7826L34.2784 27.5266L34.1824 27.1106C34.8971 27.132 35.5264 27.2973 36.0704 27.6066C36.6144 27.916 37.0411 28.3373 37.3504 28.8706C37.6598 29.3933 37.8144 30.0066 37.8144 30.7106C37.8144 31.436 37.6384 32.092 37.2864 32.6786C36.9344 33.2653 36.4491 33.7293 35.8304 34.0706C35.2118 34.412 34.5024 34.5826 33.7024 34.5826Z" fill="#FFC501"/>
</svg>
