<svg width="18" height="20" viewBox="0 0 18 20" fill="none" xmlns="http://www.w3.org/2000/svg">
<path d="M14.4234 10.5555C14.4141 8.95703 15.1383 7.75234 16.6008 6.86406C15.7828 5.69219 14.5453 5.04766 12.9141 4.92344C11.3695 4.80156 9.67969 5.82344 9.06094 5.82344C8.40703 5.82344 6.91172 4.96563 5.73516 4.96563C3.30703 5.00313 0.726562 6.90156 0.726562 10.7641C0.726562 11.9055 0.935156 13.0844 1.35234 14.2984C1.91016 15.8969 3.92109 19.8133 6.01875 19.75C7.11562 19.7242 7.89141 18.9719 9.31875 18.9719C10.7039 18.9719 11.4211 19.75 12.6445 19.75C14.7609 19.7195 16.5797 16.1594 17.1094 14.5563C14.2711 13.218 14.4234 10.6375 14.4234 10.5555ZM11.9602 3.40703C13.1484 1.99609 13.0406 0.711719 13.0055 0.25C11.9555 0.310938 10.7414 0.964844 10.05 1.76875C9.28828 2.63125 8.84062 3.69766 8.93672 4.9C10.0711 4.98672 11.107 4.40313 11.9602 3.40703Z" fill="white"/>
</svg>
