<svg width="48" height="49" viewBox="0 0 48 49" fill="none" xmlns="http://www.w3.org/2000/svg">
<rect y="0.46875" width="48" height="48" rx="24" fill="#0C513F"/>
<g clip-path="url(#clip0_4_2605)">
<path d="M27.6376 19.6829C26.0626 19.6829 25.397 20.4563 24.3001 20.4563C23.1751 20.4563 22.3173 19.6875 20.9533 19.6875C19.6173 19.6875 18.1923 20.5266 17.2876 21.9563C16.0173 23.9719 16.2329 27.7688 18.2908 31.0032C19.0267 32.161 20.0111 33.4594 21.3001 33.4735H21.3236C22.4439 33.4735 22.7767 32.7188 24.3189 32.7094H24.3423C25.8611 32.7094 26.1658 33.4688 27.2814 33.4688H27.3048C28.5939 33.4547 29.6298 32.0157 30.3658 30.8625C30.8954 30.0329 31.0923 29.6157 31.5001 28.6782C28.5236 27.5157 28.0454 23.175 30.9892 21.511C30.0892 20.3532 28.8283 19.6829 27.6376 19.6829Z" fill="white"/>
<path d="M27.2907 15.4688C26.3532 15.5344 25.261 16.1484 24.6188 16.95C24.0375 17.6766 23.5594 18.7547 23.7469 19.8H23.8219C24.8203 19.8 25.8422 19.1813 26.4375 18.3891C27.0141 17.6344 27.45 16.5656 27.2907 15.4688Z" fill="white"/>
</g>
<defs>
<clipPath id="clip0_4_2605">
<rect width="24" height="24" fill="white" transform="translate(12 12.4688)"/>
</clipPath>
</defs>
</svg>
