<svg width="14" height="17" viewBox="0 0 14 17" fill="none" xmlns="http://www.w3.org/2000/svg">
<g clip-path="url(#clip0_4_3357)">
<path d="M11.802 8.89962C11.8154 8.28252 11.9852 7.67892 12.2955 7.14532C12.6057 6.61171 13.0463 6.16556 13.576 5.84863C13.228 5.3742 12.7767 4.98502 12.2564 4.71045C11.736 4.43588 11.16 4.2831 10.572 4.26362C9.30798 4.13363 8.08298 5.00163 7.43898 5.00163C6.78298 5.00163 5.79098 4.27562 4.72298 4.29763C3.33198 4.34162 2.03398 5.11362 1.35698 6.30162C-0.0980212 8.76163 0.986979 12.3776 2.38198 14.3666C3.07898 15.3406 3.89398 16.4286 4.96198 16.3896C6.00498 16.3476 6.39498 15.7396 7.65498 15.7396C8.90298 15.7396 9.26898 16.3896 10.358 16.3656C11.478 16.3476 12.183 15.3866 12.857 14.4036C13.3567 13.7122 13.7423 12.9452 13.999 12.1316C12.683 11.5886 11.804 10.2946 11.802 8.89962ZM9.74698 2.95563C10.357 2.23962 10.658 1.31963 10.585 0.390625C9.65686 0.483866 8.79651 0.918674 8.17098 1.61063C7.87107 1.94478 7.64059 2.33523 7.49295 2.75927C7.34531 3.1833 7.28345 3.63246 7.31098 4.08063C7.77479 4.08395 8.23362 3.98485 8.65471 3.79038C9.0758 3.59591 9.44876 3.31087 9.74698 2.95563Z" fill="#0C513F"/>
</g>
<defs>
<clipPath id="clip0_4_3357">
<rect width="14" height="16" fill="white" transform="translate(0 0.390625)"/>
</clipPath>
</defs>
</svg>
