<svg width="61" height="61" viewBox="0 0 61 61" fill="none" xmlns="http://www.w3.org/2000/svg">
<g clip-path="url(#clip0_4_2768)">
<path d="M52.3945 26.9961L54.9961 29.5977C56.0977 30.6992 56.0977 32.4805 54.9961 33.5703L32.2266 56.3516C31.125 57.4531 29.3438 57.4531 28.2539 56.3516L5.47266 33.5703C4.37109 32.4688 4.37109 30.6875 5.47266 29.5977L8.07422 26.9961C9.1875 25.8828 11.0039 25.9062 12.0937 27.043L25.5469 41.1641V7.48438C25.5469 5.92578 26.8008 4.67188 28.3594 4.67188H32.1094C33.668 4.67188 34.9219 5.92578 34.9219 7.48438V41.1641L48.375 27.043C49.4648 25.8945 51.2812 25.8711 52.3945 26.9961Z" fill="#D1D5DB"/>
</g>
<defs>
<clipPath id="clip0_4_2768">
<rect width="60" height="60" fill="white" transform="translate(0.234375 0.921875)"/>
</clipPath>
</defs>
</svg>
