<svg width="1440" height="992" viewBox="0 0 1440 992" fill="none" xmlns="http://www.w3.org/2000/svg">
<g clip-path="url(#clip0_4_2942)">
<path fill-rule="evenodd" clip-rule="evenodd" d="M1440 40.993V495.309H0V51.9036L86.25 37.0651L96 29.646L142.5 34.8831L187.875 42.3022L202.5 49.7215L244.5 32.7009L276 34.8831L360.75 16.9896L398.625 36.6288L423.375 29.2095L452.25 35.3194L496.875 29.2095H540L584.812 35.5377L605.625 49.7215L616.5 55.8314L636 60.632L677.25 61.9414L720.75 51.4672L810.656 50.1579L855.375 43.6115L876 57.1407L903 50.1579L990.371 57.1407L1029 54.5221L1045.88 44.9208L1038.37 20.9175L1072.5 21.3538L1093.31 16.335L1122.75 17.4261L1144.88 10.4432H1162.88L1177.88 13.0618L1197.75 20.481H1204.5L1218.75 5.64258L1230 13.0618L1251.37 8.26111L1259.63 13.9347L1269.37 8.26111L1284 20.481L1298.53 16.444L1310.25 17.4261L1322.63 27.4638L1341.37 32.2645L1390.12 40.5565L1413.75 37.0651L1440 40.993ZM0 949.635V495.318H1440V938.725L1353.75 953.562L1344 960.982L1297.5 955.745L1252.12 948.325L1237.5 940.907L1195.5 957.927L1164 955.745L1079.25 973.639L1041.37 953.999L1016.63 961.419L987.752 955.308L943.125 961.419H900L855.188 955.09L834.375 940.907L823.5 934.797L804 929.996L762.75 928.687L719.25 939.161L629.344 940.47L584.625 947.016L564 933.487L537 940.47L449.625 933.487L411 936.105L394.125 945.707L401.625 969.71L367.5 969.274L346.688 974.292L317.25 973.202L295.125 980.185H277.125L262.125 977.567L242.25 970.147H235.5L221.25 984.985L210 977.567L188.625 982.367L180.375 976.693L170.625 982.367L156 970.147L141.469 974.184L129.75 973.202L117.375 963.164L98.6248 958.364L49.875 950.071L26.25 953.562L0 949.635Z" fill="white"/>
<path d="M15.7582 952.592L0 951.283V940.373L15.7582 940.81C19.8853 947.793 30.766 949.538 34.518 949.538C38.2699 949.538 42.397 944.301 43.5227 943.429C44.6483 942.555 58.9057 942.555 64.5336 943.429C70.1615 944.301 72.0375 949.975 72.7879 949.975C73.5383 949.975 84.419 948.228 86.6701 947.791C88.471 947.442 93.4236 949.682 95.6752 950.846C97.4762 957.48 102.178 956.811 104.305 955.648C117.811 952.592 120.438 956.957 125.69 964.812C130.943 972.668 133.945 971.359 134.32 971.359C139.723 967.518 147.827 964.521 151.204 963.503C160.959 962.194 160.959 977.468 170.339 978.777C173.166 979.172 177.968 973.686 180.093 970.485C180.469 973.54 189.849 983.579 194.727 980.087C198.629 977.294 206.357 972.813 209.734 970.922C211.61 977.905 217.613 982.269 220.615 982.269C223.616 982.269 230.37 974.85 230.37 972.231C230.37 969.613 235.623 962.63 235.623 963.939C235.623 964.987 239.374 966.122 241.25 966.557C241.25 966.994 242.451 967.343 247.253 965.248C251.756 964.376 262.262 974.85 265.263 974.85C267.665 974.85 270.015 973.105 270.891 972.231C274.793 979.912 278.02 978.632 279.146 977.032C279.646 976.014 282.072 973.366 287.775 970.922C294.904 967.867 293.778 978.777 295.654 977.032C297.53 975.286 306.159 970.485 312.913 967.867C319.667 965.248 324.544 970.922 333.549 972.231C342.553 973.54 353.059 964.812 359.812 962.63C366.566 960.448 380.073 966.557 388.328 967.867C396.582 969.176 400.333 965.685 401.084 966.557C401.684 967.256 405.836 971.213 407.837 973.105C399.733 980.087 371.693 976.014 358.687 973.105C351.783 978.342 334.299 980.523 326.42 980.96C316.214 972.929 301.657 981.105 295.654 986.197C292.352 977.468 285.024 981.687 281.771 984.888C275.169 990.823 272.267 984.743 271.642 980.96C268.34 985.848 265.263 984.743 264.137 983.579C251.381 976.159 246.879 973.105 244.628 974.85C242.376 976.596 240.5 976.159 239.374 976.159C238.474 976.159 236.498 974.122 235.623 973.105C234.997 972.958 233.596 973.366 232.996 976.159C232.396 978.952 227.493 986.052 225.117 989.251C219.114 995.187 212.361 985.033 209.734 979.214L202.981 983.579C195.477 989.165 191.6 989.688 190.599 989.251C187.297 989.601 181.97 982.705 179.719 979.214C174.841 986.633 165.836 992.307 160.209 979.214C154.581 966.122 139.572 979.214 138.072 979.214C132.67 983.404 130.068 980.96 129.443 979.214C117.436 964.899 111.183 963.939 109.557 965.248C96.6505 968.74 94.9245 963.794 95.6752 960.885L85.9197 958.702C84.1188 959.75 76.4148 960.593 72.7879 960.885C66.4847 951.109 50.4012 953.028 43.1474 955.211C32.642 966.034 20.5107 957.975 15.7582 952.592Z" fill="white"/>
<path d="M390.953 940.81C390.578 941.683 395.081 948.229 395.081 948.666C405.587 941.682 418.218 939.937 423.22 939.937C435.527 931.209 444.607 936.301 447.609 939.937C459.614 932.955 460.74 944.301 479.5 942.992C494.508 947.531 506.764 944.593 511.016 942.555C516.419 950.014 525.773 949.155 529.776 947.792C554.089 933.478 562.918 936.883 564.294 940.374C571.798 936.01 578.551 950.848 583.429 952.594C588.307 954.34 590.557 946.483 590.932 946.483C591.308 946.483 596.186 948.666 603.69 950.412C609.692 951.808 623.45 948.374 629.578 946.483C637.682 949.626 661.219 947.792 671.975 946.483C680.605 949.975 674.601 950.848 695.612 945.174C716.623 939.501 712.121 946.92 719.625 943.865C725.628 941.421 737.134 942.265 742.136 942.992C743.512 941.828 746.864 939.413 749.265 939.064C751.667 938.715 753.768 939.792 754.518 940.374C754.518 938.628 757.77 935.864 759.395 934.7C778.53 930.772 795.039 937.755 795.79 937.755C796.54 937.755 795.79 939.064 801.417 936.009C807.046 932.955 810.422 940.374 810.797 940.374C822.053 933.827 825.054 942.12 827.306 944.301C829.557 946.483 840.438 949.103 845.315 951.72C850.192 954.34 857.322 963.504 861.449 965.249C864.75 966.646 882.085 965.541 890.339 964.814C893.715 969.614 916.228 967.432 920.354 966.123C924.482 964.814 928.984 969.178 930.11 967.869C931.235 966.56 947.369 967.432 964.629 961.322C978.438 956.434 996.895 959.285 1004.4 961.322C1014.9 975.288 1026.91 964.377 1031.04 960.449C1034.34 957.307 1038.42 957.685 1040.04 958.267C1042.17 959.285 1046.79 961.322 1048.3 961.322C1050.17 961.322 1057.3 968.741 1059.55 969.177C1061.35 969.527 1063.06 968.45 1063.68 967.869C1068.55 975.724 1071.56 976.16 1079.07 980.088C1085.07 983.231 1100.08 973.251 1106.83 967.869C1113.58 972.232 1121.09 968.305 1127.84 966.995C1133.24 965.948 1136.59 966.559 1137.59 966.995C1142.97 964.232 1157.18 959.751 1170.98 963.94C1184.79 968.13 1195.75 963.068 1199.5 960.012C1212.63 960.012 1227.27 948.666 1231.39 946.92C1235.51 945.174 1245.28 946.047 1245.28 946.92C1245.28 947.792 1249.4 956.085 1250.15 956.085C1250.75 956.085 1251.65 954.921 1252.03 954.34C1258.03 957.133 1274.79 960.449 1282.42 961.758L1319.56 962.195C1326.76 958.703 1339.57 963.65 1345.08 966.559H1349.95V965.249C1340.57 950.848 1377.34 961.322 1379.22 961.322C1380.72 961.322 1384.34 957.539 1385.97 955.649L1384.47 954.775C1383.72 954.34 1382.59 947.357 1381.85 948.666C1381.25 949.713 1378.59 949.975 1377.34 949.975C1345.08 942.12 1348.83 948.666 1348.83 950.848C1348.83 953.03 1349.95 956.085 1348.08 956.521C1346.58 956.87 1333.7 952.594 1327.44 950.412C1325.19 951.284 1320.01 952.594 1317.31 950.848C1313.93 948.666 1283.17 952.594 1281.67 950.848C1280.17 949.103 1261.78 946.92 1257.28 945.611C1253.68 944.564 1252.03 943.137 1251.65 942.555C1251.52 943.137 1251.05 944.389 1250.15 944.738C1249.03 945.174 1247.15 938.628 1245.28 934.7C1243.77 931.558 1235.14 933.391 1231.02 934.7C1225.01 941.683 1200.63 949.102 1198.75 949.975C1196.88 950.848 1193.12 956.521 1186.37 954.775C1179.62 953.029 1157.48 952.594 1155.23 952.157C1152.97 951.72 1140.97 956.085 1136.47 957.394C1131.96 958.703 1135.34 957.831 1129.71 956.085C1124.09 954.34 1120.33 959.577 1116.21 960.012C1112.9 960.361 1108.58 958.413 1106.83 957.394C1095.57 967.868 1091.82 966.559 1083.56 970.923C1075.31 975.288 1063.68 956.521 1063.68 956.958C1063.68 957.394 1059.55 958.703 1057.3 958.267C1055.05 957.831 1049.05 951.284 1048.3 950.848C1047.54 950.412 1047.54 950.848 1042.67 947.792C1038.76 945.348 1035.29 946.775 1034.04 947.792C1031.29 950.557 1024.36 956.521 1018.66 958.267C1011.52 960.449 1006.65 953.03 1004.4 950.848C1002.14 948.666 990.514 949.103 989.762 949.103C981.057 945.96 972.629 947.792 969.505 949.103C959.6 952.594 937.864 956.085 928.233 957.394C926.357 953.03 904.971 960.012 896.717 957.394C890.113 955.299 887.712 954.193 887.337 953.903C876.081 956.958 864.45 955.212 860.698 953.903C856.947 952.594 849.068 938.628 845.315 939.501C842.313 940.199 831.308 933.973 826.18 930.773C820.177 919.426 814.925 925.972 814.174 925.535C813.424 925.098 811.172 928.59 810.422 926.844C809.671 925.098 805.92 922.48 802.918 923.353C799.916 924.226 796.54 924.226 795.79 924.226C790.162 919.862 771.402 921.608 766.899 921.608H759.77C757.07 921.608 755.143 925.681 754.518 927.717C752.417 923.179 745.889 927.864 742.887 930.773C738.985 927.98 732.256 929.609 729.38 930.773C726.253 931.646 718.65 932.868 713.247 930.773C706.493 928.154 698.239 932.082 695.612 933.391C692.986 934.7 681.731 937.319 676.477 936.883C671.225 936.446 672.726 932.954 670.85 934.265C668.973 935.574 639.333 935.574 634.455 934.265C630.553 933.217 624.575 934.7 622.074 935.574C607.667 941.16 595.06 937.028 590.557 934.265C589.357 938.105 586.555 939.937 585.305 940.374C581.552 942.993 574.049 932.082 571.423 928.591C568.796 925.099 567.295 926.408 566.545 927.282C565.945 927.98 564.044 927.572 563.169 927.282C556.04 920.299 537.655 930.773 529.026 936.01C520.396 941.247 512.142 930.773 511.016 930.773C509.891 930.773 502.011 934.7 499.385 934.265C497.284 933.915 485.252 931.791 479.5 930.773C478.249 931.937 473.347 933.042 463.742 928.154C454.136 923.266 449.484 925.827 448.358 927.717C443.556 922.13 438.604 921.607 436.728 922.045C432.975 920.299 423.595 927.717 422.47 927.717C413.466 925.098 391.329 939.937 390.953 940.81Z" fill="white"/>
<path d="M1385.97 944.301C1386.72 945.611 1385.22 945.611 1384.85 946.047H1397.98C1401.1 947.357 1408.03 949.103 1410.73 945.611C1413.44 942.12 1416.11 944.447 1417.11 946.047C1418.01 944.999 1432.74 943.866 1440 943.429V931.209C1438.12 929.9 1417.11 934.7 1416.36 933.391C1415.76 932.344 1414.61 931.791 1414.11 931.646C1412.86 932.663 1409.76 934.874 1407.36 935.573C1404.35 936.446 1400.6 935.573 1398.72 934.264C1396.86 932.955 1383.34 934.264 1382.22 935.573C1381.1 936.883 1383.34 938.628 1384.85 942.555C1386.34 946.484 1385.22 942.992 1385.97 944.301Z" fill="white"/>
<path d="M1424.24 38.4598L1440 39.7692V50.6787L1424.24 50.2424C1420.11 43.2596 1409.24 41.5139 1405.49 41.5139C1401.73 41.5139 1397.6 46.751 1396.48 47.6238C1395.35 48.4967 1381.1 48.4967 1375.47 47.6238C1369.84 46.751 1367.96 41.0774 1367.21 41.0774C1366.46 41.0774 1355.58 42.8241 1353.33 43.2606C1351.53 43.6097 1346.58 41.3693 1344.32 40.2055C1342.52 33.5719 1337.82 34.2411 1335.7 35.4049C1322.19 38.4598 1319.56 34.0956 1314.31 26.24C1309.06 18.3843 1306.06 19.6936 1305.68 19.6936C1300.28 23.5342 1292.17 26.5309 1288.8 27.5493C1279.04 28.8585 1279.04 13.5837 1269.66 12.2744C1266.84 11.8798 1262.03 17.366 1259.9 20.5665C1259.53 17.5115 1250.15 7.47371 1245.28 10.9651C1241.37 13.7583 1233.64 18.2389 1230.27 20.13C1228.39 13.1472 1222.39 8.78298 1219.38 8.78298C1216.38 8.78298 1209.63 16.2022 1209.63 18.8208C1209.63 21.4393 1204.38 28.4221 1204.38 27.1128C1204.38 26.0654 1200.63 24.9307 1198.75 24.4943C1198.75 24.0579 1197.55 23.7087 1192.74 25.8036C1188.25 26.6764 1177.74 16.2022 1174.73 16.2022C1172.33 16.2022 1169.98 17.9479 1169.11 18.8208C1165.21 11.1397 1161.98 12.4199 1160.86 14.0201C1160.35 15.0384 1157.92 17.686 1152.23 20.13C1145.1 23.185 1146.22 12.2744 1144.34 14.0201C1142.47 15.7658 1133.84 20.5665 1127.09 23.185C1120.33 25.8036 1115.46 20.13 1106.45 18.8208C1097.45 17.5115 1086.94 26.24 1080.19 28.4221C1073.44 30.6042 1059.92 24.4943 1051.68 23.185C1043.42 21.8757 1039.67 25.3671 1038.91 24.4943C1038.31 23.796 1034.16 19.8391 1032.16 17.9479C1040.27 10.9651 1068.3 15.0384 1081.31 17.9479C1088.22 12.7108 1105.7 10.5287 1113.58 10.0923C1123.78 18.1225 1138.34 9.94678 1144.34 4.85516C1147.65 13.5837 1154.98 9.36488 1158.23 6.16443C1164.83 0.229056 1167.73 6.30991 1168.36 10.0923C1171.66 5.2043 1174.73 6.30991 1175.87 7.47371C1188.62 14.8929 1193.12 17.9479 1195.37 16.2022C1197.62 14.4565 1199.5 14.8929 1200.63 14.8929C1201.52 14.8929 1203.5 16.9296 1204.38 17.9479C1205 18.0934 1206.4 17.686 1207 14.8929C1207.6 12.0998 1212.5 5.00063 1214.89 1.80019C1220.89 -4.13519 1227.64 6.01897 1230.27 11.838L1237.02 7.47371C1244.52 1.88747 1248.4 1.36376 1249.4 1.80019C1252.7 1.45105 1258.03 8.34655 1260.29 11.838C1265.16 4.41873 1274.16 -1.25479 1279.79 11.838C1285.42 24.9307 1300.43 11.838 1301.92 11.838C1307.33 7.64828 1309.93 10.0923 1310.56 11.838C1322.56 26.1527 1328.82 27.1128 1330.45 25.8036C1343.35 22.3122 1345.08 27.2583 1344.32 30.1678L1354.08 32.3499C1355.89 31.3025 1363.58 30.4588 1367.21 30.1678C1373.51 39.9437 1389.6 38.0235 1396.86 35.8413C1407.36 25.018 1419.49 33.0773 1424.24 38.4598Z" fill="white"/>
<path d="M1049.05 50.2425C1049.42 49.3697 1044.92 42.8233 1044.92 42.3869C1034.41 49.3699 1021.78 51.1153 1016.78 51.1149C1004.48 59.8434 995.391 54.7519 992.391 51.1149C980.381 58.0977 979.257 46.7507 960.505 48.06C945.493 43.5212 933.236 46.4597 928.984 48.4965C923.581 41.0384 914.226 41.8975 910.224 43.2594C885.912 57.574 877.082 54.1696 875.706 50.6781C868.202 55.0419 861.449 40.2044 856.572 38.4587C851.694 36.713 849.443 44.5686 849.068 44.5686C848.693 44.5686 843.814 42.3865 836.311 40.6408C830.308 39.2443 816.551 42.6775 810.422 44.5686C802.318 41.4264 778.781 43.2594 768.025 44.5686C759.395 41.0772 765.399 40.2044 744.388 45.8778C723.377 51.5514 727.879 44.1321 720.375 47.1872C714.373 49.6312 702.866 48.7873 697.864 48.06C696.488 49.2238 693.136 51.6387 690.735 51.9879C688.333 52.3369 686.233 51.2605 685.482 50.6786C685.482 52.4243 678.293 50.824 676.667 51.9879C657.532 55.9157 651.227 50.6786 650.476 50.6786C649.726 50.6786 644.211 51.9879 638.583 55.0428C632.955 58.0978 629.578 50.6786 629.203 50.6786C617.947 57.225 616.071 46.7507 613.82 44.5686C611.569 42.3865 599.562 41.9501 594.685 39.3315C589.808 36.713 582.678 27.548 578.552 25.8023C575.25 24.4058 557.915 25.5114 549.661 26.2388C546.285 21.4381 523.773 23.6203 519.646 24.9295C515.518 26.2388 511.016 21.8746 509.891 23.1838C508.765 24.4931 492.632 23.6203 475.373 29.7302C461.566 34.6182 443.106 31.7668 435.602 29.7302C425.096 15.7646 413.091 26.6753 408.963 30.603C405.661 33.7453 401.584 33.3671 399.958 32.7852C397.833 31.7668 393.205 29.7302 391.704 29.7302C389.829 29.7302 382.699 22.3109 380.449 21.8746C378.648 21.5254 376.947 22.6019 376.321 23.1838C371.444 15.3281 368.442 14.8918 360.938 10.9639C354.935 7.82168 339.927 17.8013 333.174 23.1838C326.42 18.8195 318.916 22.7474 312.163 24.0566C306.76 25.104 303.408 24.4931 302.408 24.0566C297.03 26.8207 282.823 31.3013 269.015 27.1116C255.208 22.922 244.253 27.9845 240.5 31.0395C227.369 31.0395 212.736 42.3865 208.609 44.1323C204.482 45.878 194.727 45.0051 194.727 44.1323C194.727 43.2594 190.599 34.9673 189.849 34.9673C189.249 34.9673 188.349 36.1311 187.973 36.713C181.97 33.9199 165.212 30.603 157.582 29.2937L120.438 28.8573C113.234 32.3487 100.428 27.4026 94.9246 24.4931H90.0471V25.8023C99.4268 40.2044 62.6578 29.7302 60.7818 29.7302C59.2811 29.7302 55.6542 33.5125 54.0283 35.4038L55.5291 36.2765C56.2796 36.713 57.405 43.6958 58.1555 42.3865C58.7558 41.339 61.4072 41.0772 62.6577 41.0772C94.9246 48.9329 91.1727 42.3865 91.1727 40.2044C91.1727 38.0222 90.0471 34.9673 91.923 34.5309C93.4238 34.1817 106.306 38.4587 112.559 40.6408C114.81 39.7679 119.988 38.4587 122.689 40.2044C126.066 42.3865 156.832 38.4587 158.333 40.2044C159.833 41.9501 178.218 44.1323 182.72 45.4415C186.322 46.4889 187.973 47.9146 188.349 48.4965C188.473 47.9146 188.949 46.6635 189.849 46.3143C190.974 45.878 192.851 52.4243 194.727 56.3521C196.228 59.4944 204.857 57.6614 208.984 56.3521C214.987 49.3692 239.375 41.9501 241.251 41.0772C243.127 40.2044 246.879 34.5308 253.633 36.2765C260.386 38.0222 282.522 38.4587 284.773 38.8952C287.025 39.3315 299.031 34.9673 303.534 33.658C308.035 32.3487 304.659 33.2216 310.287 34.9673C315.914 36.713 319.667 31.4759 323.794 31.0395C327.095 30.6903 331.423 32.6397 333.174 33.658C344.43 23.1838 348.181 24.4931 356.435 20.1289C364.69 15.7646 376.321 34.5308 376.321 34.0944C376.321 33.658 380.449 32.3487 382.699 32.7852C384.951 33.2216 390.953 39.768 391.704 40.2044C392.454 40.6408 392.454 40.2044 397.333 43.2594C401.234 45.7033 404.711 44.2777 405.962 43.2594C408.713 40.4953 415.642 34.5309 421.345 32.7852C428.473 30.603 433.351 38.0222 435.602 40.2044C437.854 42.3865 449.484 41.9501 450.234 41.9501C458.939 45.0923 467.369 43.2594 470.495 41.9501C480.4 38.4587 502.136 34.9673 511.767 33.658C513.643 38.0222 535.029 31.0395 543.283 33.658C549.887 35.7529 552.288 36.8585 552.663 37.1494C563.919 34.0944 575.55 35.8401 579.302 37.1494C583.054 38.4587 590.933 52.4243 594.685 51.5514C597.687 50.8531 608.693 57.0791 613.82 60.2795C619.823 71.6261 625.075 65.0806 625.826 65.517C626.576 65.9535 628.828 62.462 629.578 64.2078C630.329 65.9535 634.08 68.572 637.082 67.6992C640.084 66.8263 643.46 66.8258 644.211 66.8258C649.838 71.19 668.598 69.4443 673.101 69.4443H680.23C682.931 69.4443 684.857 65.371 685.482 63.3344C687.583 67.8732 694.112 63.189 697.114 60.2795C701.015 63.0726 707.744 61.4433 710.62 60.2795C713.747 59.4066 721.351 58.1846 726.754 60.2795C733.507 62.898 741.761 58.9701 744.388 57.6609C747.014 56.3516 758.27 53.733 763.523 54.1695C768.775 54.6059 767.274 58.0973 769.151 56.7881C771.027 55.4787 800.667 55.4787 805.545 56.7881C809.447 57.8355 815.425 56.3516 817.926 55.4787C832.334 49.8925 844.94 54.024 849.443 56.7881C850.643 52.9475 853.445 51.1145 854.695 50.6781C858.448 48.0596 865.952 58.9701 868.577 62.4615C871.204 65.9529 872.705 64.6437 873.455 63.7709C874.055 63.0726 875.956 63.4799 876.832 63.7709C883.96 70.7537 902.345 60.2795 910.975 55.0424C919.604 49.8053 927.858 60.2795 928.984 60.2795C930.11 60.2795 937.989 56.3516 940.615 56.7881C942.716 57.1372 954.743 59.2611 960.505 60.2795C961.753 59.1157 966.657 58.0101 976.257 62.898C985.867 67.786 990.514 65.2262 991.638 63.3353C996.448 68.9222 1001.4 69.4449 1003.28 69.0079C1007.03 70.7535 1016.4 63.3353 1017.53 63.3353C1026.53 65.9538 1048.67 51.1154 1049.05 50.2425Z" fill="white"/>
<path d="M54.0282 46.7507C53.2778 45.4414 54.7787 45.4414 55.1538 45.005H42.0219C38.8953 43.6957 31.9666 41.95 29.2652 45.4414C26.5639 48.9328 23.8875 46.6052 22.887 45.005C21.9866 46.0524 7.25377 47.1871 0 47.6236V59.8435C1.87593 61.1527 22.8869 56.3521 23.6373 57.6613C24.2377 58.7088 25.3883 59.2616 25.8886 59.407C27.1391 58.3887 30.2409 56.1774 32.6421 55.4792C35.6436 54.6063 39.3956 55.4792 41.2715 56.7885C43.1474 58.0978 56.6546 56.7885 57.7802 55.4792C58.9058 54.1699 56.6546 52.4242 55.1538 48.4965C53.653 44.5686 54.7787 48.06 54.0282 46.7507Z" fill="white"/>
</g>
<defs>
<clipPath id="clip0_4_2942">
<rect width="1440" height="992" fill="white"/>
</clipPath>
</defs>
</svg>
