<svg width="77" height="64" viewBox="0 0 77 64" fill="none" xmlns="http://www.w3.org/2000/svg">
<path d="M25.5587 27.4895L33.1375 27.3207L33.6653 29.937L23.5391 30.5559L25.5587 27.4895Z" fill="#1E1E1E"/>
<path d="M27.55 28.5022L20.8015 40.7678L19 39.8464L25.9807 27.5106L27.55 28.5022Z" fill="#444444"/>
<path d="M55.8879 41.8438L44.6639 36.4777L30.801 37.6873L29.1191 40.17L30.238 50.6703C30.238 50.6703 33.5384 54.2782 36.6558 55.4738C40.5261 56.9578 53.1716 56.592 53.1716 56.592L55.902 41.8438H55.8879Z" fill="#0C0000"/>
<path d="M63.9099 63.6954C57.4992 63.6954 52.2988 58.498 52.2988 52.0909C52.2988 45.6838 57.4992 40.4865 63.9099 40.4865C70.3206 40.4865 75.5139 45.6838 75.5139 52.0909C75.5139 58.498 70.3206 63.6954 63.9099 63.6954Z" fill="#303030"/>
<path d="M63.9102 60.1718C59.4488 60.1718 55.8247 56.5499 55.8247 52.0909C55.8247 47.625 59.4488 44.01 63.9102 44.01C68.3787 44.01 71.9957 47.625 71.9957 52.0909C71.9957 56.5499 68.3787 60.1718 63.9102 60.1718Z" fill="#0C0000"/>
<path d="M63.912 61.429C58.7557 61.429 54.5757 57.2462 54.5757 52.0927C54.5757 46.9393 58.7557 42.767 63.912 42.767C69.0684 42.767 73.2484 46.9393 73.2484 52.0927C73.2484 57.2462 69.0684 61.429 63.912 61.429Z" stroke="#3D3D3D" stroke-width="1.07635" stroke-miterlimit="10"/>
<path d="M24.0809 23.3259L26.0795 25.9281L20.5132 27.3488L24.0809 23.3259Z" fill="#1E1E1E"/>
<path d="M48.2316 28.9102L44.875 30.1339L45.3676 31.7163L48.9213 29.951L48.2316 28.9102Z" fill="#00160F"/>
<path d="M49.9134 13.1351C49.9134 13.1351 48.8789 14.9426 47.4293 16.1101C45.9727 17.2776 35.0864 21.3004 35.0864 21.3004C35.0864 21.3004 36.6698 21.5677 36.7542 22.4328L48.506 18.2833L51.5389 14.169L49.9134 13.1351Z" fill="#FFB2CE"/>
<path d="M32.9684 39.9308C32.5392 40.2473 32.4196 40.8381 32.694 41.2812C33.4962 42.5893 34.7277 44.9313 35.1147 47.5757C35.7199 51.6548 35.8747 51.043 35.8747 51.043L38.6966 48.2368C38.6966 48.2368 38.0069 41.8508 39.2103 39.3541C39.2103 39.3541 38.2321 36.9559 35.5581 38.1585C33.834 38.9392 33.4329 39.6003 32.9684 39.9449V39.9308Z" fill="#333333"/>
<path d="M57.2952 56.9929C57.2952 56.9929 54.8252 57.6821 52.0174 57.8157C48.2034 57.9845 35.8182 57.9986 31.6594 53.181C27.8875 48.8276 29.7594 45.8807 29.7594 45.8807L30.7797 46.4645C30.7797 46.4645 29.0979 51.7322 35.3819 54.2922C41.666 56.8522 53.5233 55.1643 53.5233 55.1643L57.2952 57.0069V56.9929Z" fill="#1C1C1C"/>
<path d="M30.8645 39.5089C30.8645 39.5089 31.3501 44.7485 32.8349 47.1467C34.3197 49.545 36.4308 50.6421 36.4308 50.6421L37.036 52.8224C37.036 52.8224 36.3323 54.3485 35.3964 54.1305C34.4604 53.9195 32.1734 52.2738 31.0827 48.7854C29.9919 45.29 28.9505 46.0496 28.4016 42.3432C27.8527 38.6368 28.1342 39.3401 28.1342 39.3401L30.8645 39.4948V39.5089Z" fill="#333333"/>
<path d="M75.6903 33.1721L76.7317 43.1942C76.7458 43.3981 76.6965 43.581 76.5699 43.7427C76.2391 44.1858 75.5636 44.1647 75.2751 43.6865L70.877 36.7097L75.7114 33.1581L75.6903 33.1721Z" fill="#444444"/>
<path d="M71.7282 31.1185C71.7282 31.1185 74.9652 30.6121 75.9855 31.0693C76.3444 31.231 76.45 31.7093 76.4781 32.1805C76.4922 32.8275 76.1826 33.4464 75.6689 33.8192C74.1418 34.9233 70.5811 37.4693 69.0259 38.0319C66.8937 38.8126 58.8504 38.9111 58.8504 38.9111L58.6675 37.5256L71.7282 31.1185Z" fill="#333333"/>
<path d="M12.9271 63.6954C6.19265 63.6954 0.731934 58.2308 0.731934 51.5002C0.731934 44.7696 6.19265 39.312 12.9271 39.312C19.6615 39.312 25.1292 44.7696 25.1292 51.5002C25.1292 58.2308 19.6615 63.6954 12.9271 63.6954Z" fill="#303030"/>
<path d="M12.934 59.996C8.24032 59.996 4.42627 56.1982 4.42627 51.5001C4.42627 46.8091 8.24032 43.0043 12.934 43.0043C17.6277 43.0043 21.4347 46.8091 21.4347 51.5001C21.4347 56.1982 17.6277 59.996 12.934 59.996Z" fill="#0C0000"/>
<path d="M12.9286 61.3077C7.50837 61.3077 3.12256 56.9191 3.12256 51.5019C3.12256 46.0848 7.50837 41.6962 12.9286 41.6962C18.3489 41.6962 22.74 46.0848 22.74 51.5019C22.74 56.9191 18.3489 61.3077 12.9286 61.3077Z" stroke="#3D3D3D" stroke-width="1.07635" stroke-miterlimit="10"/>
<path d="M47.5629 31.4491C47.5629 31.4491 43.0382 28.2702 41.4548 27.5809C39.006 26.5049 35.1215 26.7581 33.1512 27.3207C31.6312 27.7497 26.4027 30.2113 26.4027 30.2113L23.1868 36.2175C23.1868 36.2175 22.8209 37.4342 23.1094 37.8491C24.2775 39.5441 29.5834 40.6975 31.596 40.4513C36.2263 39.8605 47.5629 31.4491 47.5629 31.4491Z" fill="#028C5B"/>
<path d="M13.2156 56.8382C10.5767 56.8382 8.4375 54.7001 8.4375 52.0628C8.4375 49.4254 10.5767 47.2874 13.2156 47.2874C15.8545 47.2874 17.9937 49.4254 17.9937 52.0628C17.9937 54.7001 15.8545 56.8382 13.2156 56.8382Z" fill="#A89B75"/>
<path d="M13.1874 55.1995C11.3789 55.1995 9.9082 53.7296 9.9082 51.9221C9.9082 50.1146 11.3789 48.6377 13.1874 48.6377C14.996 48.6377 16.4667 50.1146 16.4667 51.9221C16.4667 53.7296 14.996 55.1995 13.1874 55.1995Z" fill="#0C0000"/>
<path d="M64.304 56.8382C61.6651 56.8382 59.5259 54.7001 59.5259 52.0628C59.5259 49.4254 61.6651 47.2874 64.304 47.2874C66.9429 47.2874 69.0821 49.4254 69.0821 52.0628C69.0821 54.7001 66.9429 56.8382 64.304 56.8382Z" fill="#A89B75"/>
<path d="M64.269 55.1995C62.4605 55.1995 60.9897 53.7296 60.9897 51.9221C60.9897 50.1146 62.4605 48.6377 64.269 48.6377C66.0775 48.6377 67.5482 50.1146 67.5482 51.9221C67.5482 53.7296 66.0775 55.1995 64.269 55.1995Z" fill="#0C0000"/>
<path d="M20.379 41.3023L14.109 52.7098C13.8487 53.1881 13.2505 53.3709 12.7579 53.1248C12.2583 52.8646 12.0683 52.2316 12.3427 51.7323L18.7957 40.3107L20.3649 41.3023H20.379Z" fill="#444444"/>
<path d="M13.3212 52.4215C13.096 52.4215 12.9131 52.2457 12.9131 52.0206C12.9131 51.7956 13.096 51.6198 13.3212 51.6198C13.5464 51.6198 13.7223 51.7956 13.7223 52.0206C13.7223 52.2457 13.5464 52.4215 13.3212 52.4215Z" fill="#0C0000"/>
<path d="M26.0088 52.2175C26.0088 52.2175 26.6703 46.2887 24.3692 43.5247C22.0681 40.7608 18.8451 38.046 14.7003 38.1023C10.5556 38.1586 6.15039 40.6623 6.15039 40.6623C6.15039 40.6623 6.15039 41.4219 9.27482 41.021C12.3992 40.6201 15.1578 41.1195 15.8192 43.0606L16.3822 44.9032L19.1407 43.7217C19.1407 43.7217 22.4199 43.9186 23.6444 46.5841C24.8688 49.2426 24.5662 51.8026 26.0088 52.2035V52.2175Z" fill="#1E1E1E"/>
<path d="M17.0086 33.9106C17.0086 33.9106 17.3675 34.0653 17.9586 34.1779C17.9445 33.8192 17.8319 31.5827 18.1204 30.4152C18.423 29.1915 22.8423 26.4275 23.2434 26.1813C20.7523 26.7158 17.5364 27.6372 16.7412 28.9312C15.4182 31.1185 16.9945 33.9176 16.9945 33.9176L17.0086 33.9106Z" fill="#FFC400"/>
<path d="M33.229 23.0798C33.229 23.0798 30.4846 22.1304 29.6331 22.475C28.1976 23.0658 25.995 27.5036 25.995 27.5036L25.5376 27.0183C25.5376 27.0183 27.8668 21.3427 29.5065 21.2512C31.1461 21.1668 33.5739 22.1726 33.5739 22.1726L33.229 23.0658V23.0798Z" fill="#565656"/>
<path d="M17.9798 34.1638C19.2605 34.3959 21.646 34.4029 23.8345 32.0399C27.0293 28.5867 26.3397 25.6117 26.3397 25.6117C26.3397 25.6117 24.9816 25.8016 23.2857 26.1603C22.8705 26.4205 18.4653 29.1774 18.1627 30.4012C17.8742 31.5686 17.9798 33.8051 18.0079 34.1638H17.9798Z" fill="#333333"/>
<path d="M24.1934 21.5888L17.4941 28.228L22.0682 26.3712C22.0682 26.3712 25.1997 24.5638 24.1934 21.5888Z" fill="#444444"/>
<path d="M58.0553 36.1471L63.7834 50.3678L62.376 50.9023L56.7534 36.5198L58.0553 36.1471Z" fill="#444444"/>
<path d="M34.0941 16.0468C34.0941 16.0468 34.4671 15.3717 34.6219 14.1338C34.7204 13.3321 34.4671 12.6007 34.4671 12.6007C34.3826 12.2982 34.0097 12.1998 33.7774 12.4108C33.7774 12.4108 32.2645 13.1774 31.7297 14.38C31.5256 14.8301 31.8775 15.8499 31.8775 15.8499C32.0675 16.293 32.4967 16.5954 32.9682 16.6235L33.3904 16.6517C33.7352 16.6517 34.0237 16.3914 34.0941 16.0468Z" fill="#444444"/>
<path d="M32.9684 16.6235L31.7299 16.3774L29.5273 21.209L29.2881 20.8644L31.371 16.2789L31.7299 14.38L32.9684 16.6235Z" fill="#444444"/>
<path d="M30.4774 15.0692L30.4351 18.5576C30.4351 18.5576 29.3444 18.9655 28.7814 18.1145C28.2185 17.2635 29.6751 14.6191 30.4774 15.0692Z" fill="#444444"/>
<path d="M33.6653 21.2231C33.6653 21.2231 29.5275 20.1682 28.8238 20.773C28.1201 21.3778 25.5728 25.7242 25.5728 25.7242L26.3187 25.6187C26.3187 25.6187 28.479 21.5818 29.429 21.4833C30.379 21.3849 33.2642 22.1866 33.2642 22.1866L33.6653 21.2372V21.2231Z" fill="#444444"/>
<path d="M59.4345 47.2733C59.6808 46.9146 59.5049 46.4223 59.0897 46.3098C58.8153 46.2394 58.4705 46.2676 58.1397 46.5981C57.3234 47.4139 55.5782 50.192 53.6079 50.2482C51.6375 50.3045 50.9901 48.6096 49.9557 48.9401C48.9212 49.2707 44.5513 51.1836 44.5513 51.1836C44.5513 51.1836 44.9313 55.3261 47.162 55.0518C49.3927 54.7775 54.3749 53.8069 55.7401 52.323C56.8097 51.1696 58.6745 48.4197 59.4345 47.2733Z" fill="#5E5E5E"/>
<path d="M44.9385 46.7177C44.9385 46.7177 46.7892 46.0566 47.6688 46.8302C48.5485 47.6109 50.0122 48.3001 50.561 48.0258C51.1099 47.7516 51.6518 49.116 50.6173 49.4465C49.5829 49.7771 46.0292 49.9388 46.0292 49.9388L44.9385 46.7177Z" fill="#444444"/>
<path d="M42.2362 52.3371C40.864 52.3371 39.7451 51.2188 39.7451 49.8474C39.7451 48.476 40.864 47.3647 42.2362 47.3647C43.6084 47.3647 44.7273 48.476 44.7273 49.8474C44.7273 51.2188 43.6084 52.3371 42.2362 52.3371Z" fill="#3D3D3D"/>
<path d="M35.8745 51.043C35.8745 52.5973 37.1412 53.8632 38.6964 53.8632C39.8504 53.8632 40.8567 53.1599 41.286 52.1683C40.913 52.8575 40.1741 53.3147 39.3297 53.3147C38.0912 53.3147 37.099 52.3089 37.099 51.0852C37.099 49.8685 38.1052 48.8557 39.3297 48.8557C40.2375 48.8557 41.0256 49.4043 41.3704 50.185C40.9974 49.0667 39.9489 48.2579 38.6964 48.2579C37.1412 48.2579 35.8745 49.5168 35.8745 51.0571V51.043Z" fill="#333333"/>
<path d="M37.0849 51.0711C37.0849 52.3089 38.0912 53.3006 39.3156 53.3006C40.1671 53.3006 40.8989 52.8294 41.2719 52.1542C41.4126 51.8096 41.483 51.4298 41.483 51.043C41.483 50.7406 41.4408 50.4382 41.3423 50.1639C40.9974 49.3762 40.2093 48.8417 39.3015 48.8417C38.063 48.8417 37.0708 49.8333 37.0708 51.0711H37.0849Z" fill="#444444"/>
<path d="M52.6366 7.50876C52.6366 7.50876 52.6366 7.50876 52.6226 7.50876V7.56502C52.6226 7.56502 52.6226 7.53689 52.6366 7.49469V7.50876Z" fill="#FCD363"/>
<path d="M52.2217 4.22433V4.26653C52.2217 4.26653 52.2639 4.2595 52.278 4.24543C52.2358 4.23137 52.2217 4.21027 52.2217 4.21027V4.22433Z" fill="#FCD363"/>
<path d="M54.0161 8.65509L54.5157 11.2714L50.005 13.4446C50.005 13.4446 49.5546 12.3685 48.1895 12.4529L54.0161 8.65509Z" fill="#683A28"/>
<path d="M55.0224 12.1083V10.7861C55.0224 10.6595 54.9169 10.54 54.7761 10.554C54.1287 10.6806 52.4398 11.0464 51.335 11.6793C49.9417 12.5022 48.9917 13.304 48.9917 13.304L49.5406 14.5699L55.0083 12.0943L55.0224 12.1083Z" fill="#FFC1D8"/>
<path d="M75.0216 15.4138L70.8486 13.2969C70.356 13.0508 69.8001 12.9382 69.2371 12.9804L57.4431 13.9299C57.1405 13.958 56.9224 14.2464 56.9928 14.5488L57.612 17.0947L75.0216 15.4138Z" fill="#FCD363"/>
<path d="M71.8688 45.9441L51.7852 55.3613C51.4826 55.5019 51.3278 55.8325 51.3981 56.149C51.4544 56.4232 51.6726 56.6272 51.947 56.6835C52.7985 56.8593 54.6352 57.1828 55.4092 57.1828C60.504 57.1828 74.1699 50.41 74.1699 50.41C74.7469 50.185 75.1199 49.6364 75.1339 49.0175C75.148 48.4548 75.0917 47.7515 74.761 47.1186C74.2895 46.1551 73.2973 45.8808 72.6921 45.8104C72.4036 45.7682 72.1151 45.8175 71.8547 45.9441H71.8688Z" fill="#5E5E5E"/>
<path d="M47.0073 46.1833C47.0073 46.1833 51.8136 50.2343 53.798 50.0795C54.9662 49.9811 57.225 46.4013 57.4432 42.6316C57.598 39.945 55.8739 36.6676 55.8739 36.6676L47.0073 46.1833Z" fill="#0C0000"/>
<path d="M55.6559 37.8983C56.2751 37.842 56.634 38.5875 56.2048 39.0517C54.4174 40.8943 51.1804 44.1154 49.583 45.0368C48.8511 45.4517 47.0919 46.3871 46.3319 46.0284C44.8189 45.3111 43.313 40.0293 43.313 40.0293L47.8448 38.5805L55.67 37.8983H55.6559Z" fill="#333333"/>
<path d="M52.665 36.8223L51.328 39.0377C51.328 39.0377 47.711 39.2979 46.6062 39.0377C45.5576 38.7915 43.0103 37.1669 43.0103 37.1669L52.665 36.8223Z" fill="#444444"/>
<path d="M72.0097 32.6517C73.8534 31.8781 71.6157 29.4236 71.6157 29.4236L59.4628 30.141L48.9917 37.2232C48.9917 37.2232 49.7658 38.9674 50.3287 38.9955C52.5595 39.094 57.5909 38.1797 57.5909 38.1797C57.5909 38.1797 66.8305 34.839 72.0238 32.6517H72.0097Z" fill="#0C0000"/>
<path d="M75.0214 15.4208L76.4851 28.4319C76.5695 29.1352 76.0628 29.7682 75.3591 29.8385C72.0658 30.2112 63.2555 31.2521 60.117 31.6249C59.4977 31.6952 58.9348 31.2451 58.8785 30.6121L57.6118 17.1017L75.0214 15.4208Z" fill="#FFC400"/>
<path d="M75.1904 16.7149L75.0215 15.4208L58.0693 17.0525L58.2312 18.6982C58.2875 19.3031 58.8364 19.7321 59.4415 19.6617L74.2404 17.9316C74.8455 17.8543 75.2607 17.3197 75.1904 16.7149Z" fill="#E2A500"/>
<path d="M53.2491 28.038C53.0591 28.038 39.5833 32.6798 38.4433 33.7629C37.3103 34.8389 37.0499 36.6183 37.6833 38.4047L41.5958 49.348C41.7225 49.7208 42.0884 49.9529 42.4755 49.9529L45.4662 49.9107C45.8251 49.9107 46.1136 49.5731 46.0714 49.2144C45.7969 46.9005 44.7906 39.3682 43.2917 38.0741C43.2917 38.0741 43.2425 37.5748 43.7421 37.4974C44.2417 37.4271 53.5235 37.631 56.5706 35.0851C59.6246 32.5392 59.7513 29.3602 57.5206 28.671C55.2898 27.9818 53.2632 28.038 53.2632 28.038H53.2491Z" fill="#0C513F"/>
<path d="M45.6982 49.2074C45.6982 49.2074 46.4723 51.7815 46.6764 52.7591C46.8382 53.4764 47.0141 54.4118 47.0986 54.8549C47.1267 54.9956 47.0282 55.1151 46.8804 55.1292L44.9805 55.2136L44.8256 54.7564C44.8256 54.7564 43.4323 55.734 41.9475 55.8325C40.4627 55.9309 38.809 55.9942 38.2953 55.6356C37.7816 55.2769 38.0349 54.2923 39.4283 54.236C40.8216 54.1797 42.4049 49.6645 42.4049 49.6645L45.6982 49.2074Z" fill="#2B2B2B"/>
<path d="M54.1569 8.94345L54.185 9.75224C54.185 9.75224 53.0943 10.554 51.715 11.201C50.3358 11.8481 49.1113 12.5232 49.1113 12.5232L47.915 12.2912L54.1709 8.92938L54.1569 8.94345Z" fill="#54281C"/>
<path d="M46.0996 12.685C46.7752 12.9312 48.3303 12.474 50.0263 11.6934C52.4118 10.6173 55.107 8.90127 56.1414 7.62127C56.1977 7.55094 56.2399 7.49467 56.2821 7.43841C56.3947 6.99533 56.4581 6.53115 56.4581 6.05994V6.01774C56.4581 2.86696 53.8966 0.306946 50.744 0.306946C47.5914 0.306946 45.227 2.6841 45.037 5.68719C44.4881 8.17687 45.1074 12.3263 46.1137 12.685H46.0996Z" fill="#FFC400"/>
<path d="M45.0229 10.5188C45.3677 11.5386 50.6877 8.75357 52.6018 7.52982C52.6018 7.52982 52.6018 7.52982 52.6159 7.52982C52.6722 7.24147 52.8622 6.11619 52.7918 5.30036C52.7144 4.55487 52.3977 4.33684 52.271 4.28058C52.257 4.28058 52.2288 4.29464 52.2148 4.30871C49.8011 5.42696 44.9877 5.68718 44.9877 5.68718C44.9877 5.68718 44.4037 8.70434 45.0229 10.5329V10.5188Z" fill="#FCD363"/>
<path d="M52.7848 5.27929C52.8552 6.09512 52.6722 7.2204 52.6159 7.50875C52.9467 7.29776 53.193 7.12897 53.2774 7.03051C53.9107 6.39754 54.8607 2.43092 52.9185 3.86566C52.7285 4.01335 52.5104 4.14698 52.25 4.2595C52.3978 4.31577 52.7144 4.53379 52.7707 5.27929H52.7848Z" fill="#333333"/>
<path d="M59.0333 30.155C59.0333 30.2956 58.8433 30.366 58.7589 30.2675C58.2593 29.74 57.0278 28.671 55.1559 28.6569C51.933 28.6288 47.8726 29.9932 47.8726 29.9932C47.8726 29.9932 47.3097 27.1237 47.1971 26.1602C47.0564 24.8099 47.0493 20.9206 47.0493 20.9206L57.3374 15.0833L57.8722 15.5474C57.8722 15.5474 58.8644 17.9316 59.167 23.6072C59.2374 24.9435 59.0896 28.875 59.0333 30.169V30.155Z" fill="#FFC1D8"/>
<path d="M34.8473 21.6381L38.1195 23.3822L37.6973 24.6341L34.017 22.7915L33.9185 21.7014L34.8473 21.6381Z" fill="#444444"/>
<path d="M38.0141 22.1304L34.4252 20.7097C34.1226 20.5972 33.7849 20.6605 33.5737 20.8926L32.8489 21.6381C32.5886 21.8983 32.5604 22.2992 32.7504 22.6156L33.44 23.6706C33.616 23.9308 33.9186 24.0855 34.2352 24.0715L35.9874 23.973L35.7763 23.4948L34.6363 23.2838C34.6363 23.2838 34.4604 22.7211 34.6786 22.3625C34.953 21.9334 35.4526 22.0319 35.4526 22.0319L37.7256 23.1783L38.0282 22.1444L38.0141 22.1304Z" fill="#683A28"/>
<path d="M57.8582 15.5264C57.8582 15.5264 55.909 11.1026 52.876 12.0943C49.8431 13.0859 47.8587 16.7501 47.1409 17.2424C46.5076 17.6715 38.8794 20.6605 37.0358 21.3778C36.8458 21.4482 36.7965 21.6873 36.9232 21.828C37.1554 22.1163 37.4439 22.5805 37.3876 23.122C37.3454 23.5088 37.2821 23.8253 37.2398 24.0363C37.1835 24.2684 37.3383 24.5146 37.5846 24.5427C38.2602 24.6271 39.555 24.7185 40.505 24.4302C41.8561 24.0293 50.1316 21.3919 51.8135 19.6407C53.4953 17.8895 57.8723 15.5264 57.8723 15.5264H57.8582Z" fill="#FFC1D8"/>
<path d="M37.6902 23.8956L36.2969 23.2978L37.2117 22.9673L37.9506 23.2345L37.6902 23.8956Z" fill="#444444"/>
<path d="M37.6269 24.62C37.2258 24.62 36.895 24.2965 36.895 23.8886C36.895 23.4877 37.2258 23.1501 37.6269 23.1501C38.035 23.1501 38.3658 23.4877 38.3658 23.8886C38.3658 24.2965 38.035 24.62 37.6269 24.62Z" fill="#565656"/>
<path d="M36.4165 28.6711C35.0725 28.6711 33.9888 28.3475 33.9888 27.9537C33.9888 27.5528 35.0725 27.2363 36.4165 27.2363C37.7606 27.2363 38.8513 27.5528 38.8513 27.9537C38.8513 28.3475 37.7606 28.6711 36.4165 28.6711Z" fill="#E2A500"/>
<path d="M36.3111 28.2069C35.3681 28.2069 34.6011 28.0592 34.6011 27.8763C34.6011 27.6935 35.3681 27.5458 36.3111 27.5458C37.254 27.5458 38.0211 27.6935 38.0211 27.8763C38.0211 28.0592 37.254 28.2069 36.3111 28.2069Z" fill="#FFC400"/>
<path d="M36.3038 28.0521C35.8041 28.0521 35.396 27.9748 35.396 27.8763C35.396 27.7849 35.8041 27.7075 36.3038 27.7075C36.8034 27.7075 37.2115 27.7849 37.2115 27.8763C37.2115 27.9748 36.8034 28.0521 36.3038 28.0521Z" fill="#E2A500"/>
<path d="M67.5131 27.2363C69.1246 27.2363 70.4335 25.9282 70.4335 24.3176C70.4335 22.7071 69.1246 21.3989 67.5131 21.3989C65.9017 21.3989 64.5928 22.7071 64.5928 24.3176C64.5928 25.9282 65.9017 27.2363 67.5131 27.2363Z" fill="#0C513F"/>
<path d="M69.1739 24.4653C68.9698 25.2108 68.252 25.7242 67.4569 25.6398C67.1965 25.6117 66.9502 25.5202 66.7391 25.3866L65.6343 26.0266L66.2113 24.8169C66.0565 24.5427 65.9861 24.2121 66.0213 23.8745C66.1128 22.9884 66.908 22.3484 67.7876 22.4398C68.625 22.5242 69.2443 23.2415 69.2302 24.0644C69.1457 24.0574 68.4843 23.98 68.1957 23.7901C68.055 23.6987 67.858 23.5369 67.668 23.5158C67.3795 23.4877 67.105 23.6776 67.0839 24.0433C67.0698 24.3387 67.3443 24.5497 67.5483 24.5638C67.8298 24.5848 67.9987 24.4301 68.2943 24.402C68.5828 24.3739 69.1457 24.4653 69.1739 24.4723V24.4653Z" fill="#FFC400"/>
</svg>
