<svg width="1062" height="561" viewBox="0 0 1062 561" fill="none" xmlns="http://www.w3.org/2000/svg">
<g clip-path="url(#clip0_4_2827)">
<path d="M614.044 3.92214V22.0423C608.833 22.7141 598.466 23.1771 586.528 23.1771C573.755 23.1771 562.779 22.6505 557.995 21.9061V3.92214C557.995 3.04155 558.322 2.22451 558.867 1.61627C564.141 2.94169 574.1 3.84044 585.529 3.84044C597.54 3.84044 607.944 2.85091 612.964 1.40747C613.627 2.03387 614.035 2.94169 614.035 3.93122H614.044V3.92214Z" fill="#FFC501"/>
<path d="M617.803 42.7496C617.803 43.1127 616.323 43.7482 614.035 44.0387C608.824 44.7105 598.457 45.1735 586.519 45.1735C573.746 45.1735 562.77 44.6469 557.986 43.9025C556.334 43.6483 554.936 43.5031 554.872 42.9039C554.845 42.6043 554.999 42.1141 556.289 41.9325V21.6154C561.073 22.3689 573.746 23.1769 586.51 23.1769C598.448 23.1769 610.34 22.1964 615.551 21.5247V41.5603C617.993 41.8145 617.785 42.3955 617.785 42.7496H617.803Z" fill="#ED5E3B"/>
<path d="M614.044 44.0388V117.355H558.004V43.9026C562.789 44.6561 573.764 45.1735 586.537 45.1735C598.475 45.1735 608.833 44.7196 614.053 44.0388H614.044Z" fill="#FF884D"/>
<path d="M655.514 216.489V534.935C655.514 541.118 646.853 560.391 587.554 560.391C523.797 560.391 518.968 541.108 518.968 534.917V216.489C518.968 201.129 525.277 187.239 535.445 177.28C541.3 170.626 557.033 151.834 558.031 140.504H613.999C614.879 151.162 630.412 168.447 637.62 175.937C648.623 185.977 655.523 200.43 655.523 216.498H655.514V216.489Z" fill="#FF884D"/>
<path d="M612.973 1.39831C607.953 2.84175 597.549 3.83128 585.539 3.83128C573.528 3.83128 564.141 2.93253 558.876 1.60711C559.521 0.853615 560.474 0.390625 561.536 0.390625H610.513C611.475 0.390625 612.347 0.762833 612.973 1.39831Z" fill="#ED5E3B"/>
<path d="M543.833 250.396V379.652H543.361C537.597 378.381 531.941 376.756 526.485 374.713V247.927C530.688 248.662 536.553 249.57 543.833 250.396Z" fill="#FFC501"/>
<path d="M526.485 247.927V374.713C523.916 373.76 521.401 372.707 518.932 371.563V246.447C518.932 246.447 521.573 247.073 526.485 247.927Z" fill="#FEDC67"/>
<path d="M655.514 247.137V374.06C655.514 374.06 595.271 391.145 543.361 379.652H543.833V250.396C568.172 253.183 608.38 255.144 655.514 247.137Z" fill="#FEDC67"/>
<path d="M614.044 111.299V140.495C614.044 140.495 605.293 144.308 587.763 144.308C566.574 144.308 557.995 140.495 557.995 140.495V111.299C557.995 111.299 570.305 114.422 586.283 114.422C600.327 114.422 614.044 111.299 614.044 111.299Z" fill="#ED5E3B"/>
<path d="M527.647 549.478L531.695 543.85C536.307 539.892 538.931 534.1 538.867 528.027L536.97 363.611C536.879 355.413 533.92 347.497 528.6 341.251L518.478 329.34L520.093 541.934L527.647 549.488V549.478Z" fill="#FFC501"/>
<path d="M529.208 532.711C529.208 532.711 527.329 538.185 515.418 542.87C506.485 546.392 491.915 549.479 468.257 549.479C444.599 549.479 430.228 546.465 421.123 542.997C408.758 538.276 406.616 532.72 406.616 532.72L406.461 364.319C406.461 348.523 416.003 344.592 419.298 337.175C425.054 339.835 443.083 343.167 468.084 343.167C491.261 343.167 510.87 340.77 517.361 337.466C519.358 344.183 529.063 350.801 529.063 364.292L529.217 532.72H529.208V532.711Z" fill="#FFC501"/>
<path d="M515.418 542.87C514.928 551.267 494.012 558.021 468.275 558.021C442.538 558.021 421.803 551.322 421.123 542.988C430.228 546.456 444.862 549.47 468.257 549.47C491.651 549.47 506.485 546.392 515.418 542.861V542.87Z" fill="#E5AA03"/>
<path d="M519.631 335.078C519.631 335.913 518.832 336.712 517.352 337.466C510.87 340.761 491.261 343.167 468.076 343.167C443.065 343.167 422.221 340.371 417.519 336.658C416.865 336.158 416.529 335.623 416.529 335.087C416.529 334.125 417.601 333.199 419.571 332.355C427.087 335.35 445.743 337.484 467.558 337.484C489.373 337.484 508.918 335.26 516.072 332.128C518.36 333.054 519.622 334.043 519.622 335.087H519.631V335.078Z" fill="#FFDC67"/>
<path d="M528.455 358.654C528.455 358.654 528.391 358.691 528.355 358.709C520.421 362.739 496.436 365.672 468.085 365.672C439.733 365.672 413.988 362.512 407.006 358.237C407.415 356.058 408.041 354.16 408.795 352.463C411.836 345.709 417.038 342.259 419.289 337.166C425.045 339.826 443.074 343.158 468.085 343.158C491.261 343.158 510.87 340.761 517.361 337.457C518.66 341.832 523.235 346.172 526.258 352.39C527.184 354.288 527.965 356.357 528.455 358.663V358.654Z" fill="#FFD134"/>
<path d="M516.081 332.109C513.766 333.126 510.199 334.043 505.668 334.815C496.227 333.144 482.419 332.082 467.041 332.082C451.662 332.082 438.353 333.099 428.93 334.724C424.99 334.025 421.795 333.217 419.58 332.336C426.733 329.213 445.761 326.98 468.085 326.98C490.408 326.98 508.564 329.114 516.081 332.109Z" fill="#FFD134"/>
<path d="M505.668 334.815C496.245 336.44 482.664 337.466 467.567 337.466C452.47 337.466 438.372 336.413 428.93 334.733C438.353 333.117 451.944 332.091 467.041 332.091C482.138 332.091 496.227 333.144 505.668 334.824V334.815Z" fill="#FFC501"/>
<path d="M468.066 447.875C468.066 486.231 448.875 517.314 425.199 517.314C418.536 517.314 412.226 514.854 406.598 510.46L406.489 385.38C412.145 380.923 418.49 378.417 425.208 378.417C448.884 378.417 468.076 409.51 468.076 447.866H468.066V447.875Z" fill="#ED5E3B"/>
<path opacity="0.8" d="M503.154 404.318C495.9 404.753 501.393 390.255 503.154 389.883C504.661 389.565 509.963 403.909 503.154 404.318Z" fill="#CEC095"/>
<path opacity="0.8" d="M503.744 403.038C496.436 403.482 501.974 388.866 503.744 388.485C505.26 388.158 510.607 402.62 503.744 403.038Z" fill="#FEF9E5"/>
<path opacity="0.8" d="M466.55 521.091C459.297 521.527 464.789 507.029 466.55 506.657C468.057 506.339 473.359 520.682 466.55 521.091Z" fill="#CEC095"/>
<path opacity="0.8" d="M467.141 519.82C459.833 520.265 465.37 505.649 467.141 505.268C468.657 504.941 474.004 519.402 467.141 519.82Z" fill="#FEF9E5"/>
<path opacity="0.8" d="M503.19 386.37C502.963 386.552 502.636 386.443 502.573 386.161C502.255 384.745 500.567 381.776 503.372 376.057C503.372 376.057 502.863 378.663 504.035 381.595C505.169 384.427 503.844 385.862 503.19 386.379V386.37Z" fill="#CEC095"/>
<path opacity="0.8" d="M503.19 385.426C502.963 385.607 502.636 385.499 502.573 385.217C502.255 383.801 500.567 380.832 503.372 375.113C503.372 375.113 502.863 377.718 504.035 380.651C505.169 383.483 503.844 384.918 503.19 385.435V385.426Z" fill="#FEF9E5"/>
<path opacity="0.8" d="M466.342 501.645C466.115 501.827 465.788 501.718 465.724 501.437C465.407 500.02 463.718 497.052 466.523 491.333C466.523 491.333 466.015 493.938 467.186 496.87C468.321 499.703 466.995 501.137 466.342 501.654V501.645Z" fill="#CEC095"/>
<path opacity="0.8" d="M466.342 500.701C466.115 500.883 465.788 500.774 465.724 500.493C465.407 499.076 463.718 496.108 466.523 490.388C466.523 490.388 466.015 492.994 467.186 495.926C468.321 498.759 466.995 500.193 466.342 500.71V500.701Z" fill="#FEF9E5"/>
</g>
<defs>
<clipPath id="clip0_4_2827">
<rect width="249.061" height="560" fill="white" transform="translate(406.461 0.390625)"/>
</clipPath>
</defs>
</svg>
