<svg width="41" height="41" viewBox="0 0 41 41" fill="none" xmlns="http://www.w3.org/2000/svg">
<rect y="0.390625" width="41" height="40" rx="20" fill="#F2FCF9"/>
<g clip-path="url(#clip0_4_3032)">
<path d="M17 28.6406C17 28.7732 16.9473 28.9004 16.8536 28.9942C16.7598 29.0879 16.6326 29.1406 16.5 29.1406C16.3674 29.1406 16.2402 29.0879 16.1464 28.9942C16.0527 28.9004 16 28.7732 16 28.6406C16 28.508 16.0527 28.3808 16.1464 28.2871C16.2402 28.1933 16.3674 28.1406 16.5 28.1406C16.6326 28.1406 16.7598 28.1933 16.8536 28.2871C16.9473 28.3808 17 28.508 17 28.6406ZM26.75 28.6406C26.75 28.7732 26.6973 28.9004 26.6036 28.9942C26.5098 29.0879 26.3826 29.1406 26.25 29.1406C26.1174 29.1406 25.9902 29.0879 25.8964 28.9942C25.8027 28.9004 25.75 28.7732 25.75 28.6406C25.75 28.508 25.8027 28.3808 25.8964 28.2871C25.9902 28.1933 26.1174 28.1406 26.25 28.1406C26.3826 28.1406 26.5098 28.1933 26.6036 28.2871C26.6973 28.3808 26.75 28.508 26.75 28.6406Z" fill="#02C27F" stroke="#02C27F" stroke-width="2"/>
<path d="M12.966 15.1406H29.784L27.309 23.8026C27.2209 24.117 27.032 24.3938 26.7713 24.5904C26.5106 24.7869 26.1925 24.8924 25.866 24.8906H16.884C16.5575 24.8924 16.2394 24.7869 15.9787 24.5904C15.718 24.3938 15.5291 24.117 15.441 23.8026L12.047 11.9346C12.0022 11.7778 11.9075 11.6398 11.7772 11.5416C11.6469 11.4435 11.4881 11.3904 11.325 11.3906H9.75" stroke="#02C27F" stroke-width="2" stroke-linecap="round" stroke-linejoin="round"/>
</g>
<defs>
<clipPath id="clip0_4_3032">
<rect width="25" height="24" fill="white" transform="translate(8 8.39062)"/>
</clipPath>
</defs>
</svg>
