<svg width="22" height="25" viewBox="0 0 22 25" fill="none" xmlns="http://www.w3.org/2000/svg">
<g clip-path="url(#clip0_4_2925)">
<path d="M19.2078 11.0222C19.2086 11.7916 19.0864 12.5562 18.846 13.2871C18.2983 15.3136 17.0932 17.1008 15.4199 18.3683H15.4179L9.71046 23.1501L3.47671 17.9328C1.80085 16.2412 0.398909 13.9492 0.270446 11.2857C0.153895 8.8891 0.95297 6.5378 2.5057 4.70845C4.05843 2.8791 6.24863 1.70857 8.63237 1.43414C11.0161 1.1597 13.415 1.80189 15.3428 3.23053C17.2706 4.65917 18.5831 6.76737 19.0142 9.1278C19.0244 9.18315 19.0194 9.24031 18.9999 9.29307C19.1384 9.85904 19.2083 10.4396 19.2079 11.0223L19.2078 11.0222Z" fill="#02C27F"/>
<path d="M9.76519 12.9845C11.8202 12.9845 13.486 11.3187 13.486 9.26373C13.486 7.20884 11.8202 5.54297 9.76519 5.54297C7.7103 5.54297 6.04443 7.20871 6.04443 9.26373C6.04443 11.3186 7.71017 12.9845 9.76519 12.9845Z" fill="white"/>
</g>
<defs>
<clipPath id="clip0_4_2925">
<rect width="21" height="24" fill="white" transform="translate(0.140625 0.390625)"/>
</clipPath>
</defs>
</svg>
