<svg width="48" height="48" viewBox="0 0 48 48" fill="none" xmlns="http://www.w3.org/2000/svg">
<rect width="48" height="48" rx="24" fill="white"/>
<g clip-path="url(#clip0_4_3546)">
<path d="M20.5 32.25C20.5 32.3826 20.4473 32.5098 20.3536 32.6036C20.2598 32.6973 20.1326 32.75 20 32.75C19.8674 32.75 19.7402 32.6973 19.6464 32.6036C19.5527 32.5098 19.5 32.3826 19.5 32.25C19.5 32.1174 19.5527 31.9902 19.6464 31.8964C19.7402 31.8027 19.8674 31.75 20 31.75C20.1326 31.75 20.2598 31.8027 20.3536 31.8964C20.4473 31.9902 20.5 32.1174 20.5 32.25ZM30.25 32.25C30.25 32.3826 30.1973 32.5098 30.1036 32.6036C30.0098 32.6973 29.8826 32.75 29.75 32.75C29.6174 32.75 29.4902 32.6973 29.3964 32.6036C29.3027 32.5098 29.25 32.3826 29.25 32.25C29.25 32.1174 29.3027 31.9902 29.3964 31.8964C29.4902 31.8027 29.6174 31.75 29.75 31.75C29.8826 31.75 30.0098 31.8027 30.1036 31.8964C30.1973 31.9902 30.25 32.1174 30.25 32.25Z" fill="#02C27F" stroke="#02C27F" stroke-width="2"/>
<path d="M16.466 18.75H33.284L30.809 27.412C30.7209 27.7264 30.532 28.0032 30.2713 28.1997C30.0106 28.3963 29.6925 28.5018 29.366 28.5H20.384C20.0575 28.5018 19.7394 28.3963 19.4787 28.1997C19.218 28.0032 19.0291 27.7264 18.941 27.412L15.547 15.544C15.5022 15.3871 15.4075 15.2492 15.2772 15.151C15.1469 15.0528 14.9881 14.9998 14.825 15H13.25" stroke="#02C27F" stroke-width="2" stroke-linecap="round" stroke-linejoin="round"/>
</g>
<defs>
<clipPath id="clip0_4_3546">
<rect width="25" height="24" fill="white" transform="translate(11.5 12)"/>
</clipPath>
</defs>
</svg>
