<svg width="138" height="131" viewBox="0 0 138 131" fill="none" xmlns="http://www.w3.org/2000/svg">
<g clip-path="url(#clip0_4_3429)">
<path d="M36.8163 4.37267L107.58 18.8988C108.396 19.0663 109.144 19.4746 109.726 20.0709C110.308 20.6676 110.698 21.425 110.846 22.2455C112.817 33.0321 113.916 77.9724 117.231 96.5045C117.776 99.5786 123.067 110.829 123.067 110.829C123.233 111.164 123.263 111.55 123.151 111.907C123.038 112.263 122.792 112.562 122.464 112.741C122.246 112.86 122.002 112.92 121.755 112.916L109.192 112.202C108.31 112.183 107.434 112.346 106.618 112.681C105.802 113.016 105.064 113.515 104.45 114.148L94.7556 124.117C93.9518 124.734 93.0147 125.154 92.0193 125.344C91.0239 125.533 89.998 125.486 89.0239 125.207L17.0239 104.016C16.6611 103.912 16.3244 103.732 16.0362 103.489C15.748 103.245 15.5148 102.943 15.3521 102.602C15.189 102.262 15.0999 101.891 15.0906 101.513C15.0814 101.136 15.1522 100.761 15.2985 100.412L21.3241 85.9957C22.7396 82.5945 21.5256 78.3159 22.1682 59.217C22.9408 36.2479 34.3937 6.04635 34.3937 6.04635C34.4343 5.77311 34.5305 5.51111 34.6764 5.27658C34.8223 5.04205 35.0149 4.83998 35.2421 4.68289C35.4692 4.52601 35.7261 4.41752 35.9969 4.36415C36.2677 4.31079 36.5466 4.31369 36.8163 4.37267Z" fill="#B5865C" stroke="black" stroke-width="1.40135" stroke-miterlimit="10"/>
<path d="M122.207 112.348C122.072 112.503 121.905 112.628 121.717 112.712C121.529 112.797 121.325 112.84 121.118 112.838L109.198 112.206C108.316 112.187 107.44 112.35 106.624 112.685C105.808 113.02 105.07 113.519 104.456 114.152L94.7562 124.121C94.0486 124.666 93.5422 124.05 92.7095 124.263L104.277 104.21V104.014L122.207 112.348Z" fill="#421E0B" stroke="black" stroke-width="1.40135" stroke-miterlimit="10"/>
<path d="M117.046 95.3714C117.127 98.7073 123.033 110.829 123.033 110.829C123.316 111.374 122.854 111.92 122.489 112.345L104.265 104.022L108.559 23.2817L109.104 19.5752C109.56 19.8862 109.95 20.2848 110.251 20.748C110.552 21.2112 110.758 21.7297 110.856 22.2732C112.811 33.0327 116.539 74.7081 117.046 95.3714Z" fill="#5B2A0E" stroke="black" stroke-width="1.40135" stroke-miterlimit="10"/>
<path d="M31.5093 88.3916L81.3982 101.588" stroke="#5B2A0E" stroke-width="1.40135" stroke-miterlimit="10" stroke-linecap="round"/>
<path d="M108.555 23.2842L104.287 104.046V104.242L92.4531 124.666L92.0339 124.753C91.7452 119.057 94.1785 109.747 95.2509 105.763C95.4989 104.806 95.6017 103.818 95.5559 102.831C95.485 101.059 95.9095 98.4374 96.6116 98.0613C97.537 97.5542 98.2939 96.0882 98.4461 95.0417L108.555 23.2842Z" fill="#825C43" stroke="black" stroke-width="1.40135" stroke-miterlimit="10"/>
<g style="mix-blend-mode:multiply">
<path d="M37.1222 5.98594L104.754 19.0636C105.411 19.1907 106.036 19.4462 106.595 19.8153C107.153 20.1844 107.633 20.6599 108.008 21.2147C108.765 22.3359 109.046 23.7118 108.79 25.0402L107.436 32.0617C106.99 34.3773 105.643 36.4209 103.69 37.7435C102.724 38.3979 101.639 38.8553 100.496 39.0896C99.3526 39.3239 98.1746 39.3306 97.0291 39.1091L36.8378 27.4698C35.692 27.2481 34.6011 26.8027 33.6274 26.1592C32.6538 25.5156 31.8165 24.6865 31.1634 23.7192C29.8432 21.7643 29.3526 19.3654 29.7994 17.0492L31.1527 10.0332C31.4077 8.70406 32.18 7.53055 33.2998 6.77056C33.8541 6.39487 34.477 6.13219 35.1329 5.99755C35.7887 5.86291 36.4648 5.85897 37.1222 5.98594Z" fill="#CC966A"/>
</g>
<path d="M36.9112 1.37661L107.461 15.0189C108.131 15.1486 108.769 15.4093 109.339 15.7859C109.909 16.1625 110.399 16.6477 110.781 17.2138C111.553 18.3578 111.84 19.7615 111.579 21.1169L110.278 27.8652C109.823 30.2261 108.449 32.3099 106.458 33.6585C104.468 35.0062 102.025 35.5068 99.6667 35.0509L36.7011 22.8753C35.5328 22.6491 34.4206 22.195 33.4279 21.5388C32.4352 20.8827 31.5816 20.0373 30.9158 19.0511C29.5698 17.0578 29.0697 14.612 29.5252 12.2504L30.8308 5.48023C31.0966 4.13106 31.8854 2.94187 33.025 2.17232C34.1641 1.40328 35.5615 1.11714 36.9112 1.37661Z" fill="#CC966A" stroke="black" stroke-width="1.40135" stroke-miterlimit="10"/>
<path d="M65.8376 41.1341C71.0305 41.1341 75.2401 36.9242 75.2401 31.7316C75.2401 26.5387 71.0305 22.3291 65.8376 22.3291C60.6447 22.3291 56.4351 26.5387 56.4351 31.7316C56.4351 36.9242 60.6447 41.1341 65.8376 41.1341Z" fill="#0C513F" stroke="black" stroke-width="1.40135" stroke-miterlimit="10"/>
</g>
<defs>
<clipPath id="clip0_4_3429">
<rect width="138" height="130" fill="white" transform="translate(0 0.390625)"/>
</clipPath>
</defs>
</svg>
