<svg width="18" height="18" viewBox="0 0 18 18" fill="none" xmlns="http://www.w3.org/2000/svg">
<g clip-path="url(#clip0_4_3542)">
<path d="M5.18896 7.40742C4.92529 7.67109 4.92529 8.10351 5.18896 8.36719L8.55342 11.7211C8.81006 11.9777 9.2249 11.9848 9.48857 11.7422L12.8038 8.4375C12.9374 8.30391 13.0042 8.13164 13.0042 7.95586C13.0042 7.78359 12.9374 7.60781 12.8073 7.47773C12.5437 7.21406 12.1147 7.21055 11.8476 7.47773L8.9999 10.2832L6.14873 7.40391C5.88506 7.14023 5.45615 7.14023 5.18896 7.40742Z" fill="black"/>
<path d="M1.6875 9C1.6875 13.0395 4.96055 16.3125 9 16.3125C13.0395 16.3125 16.3125 13.0395 16.3125 9C16.3125 4.96055 13.0395 1.6875 9 1.6875C4.96055 1.6875 1.6875 4.96055 1.6875 9ZM13.3734 4.62656C14.5441 5.79375 15.1875 7.34766 15.1875 9C15.1875 10.6523 14.5441 12.2063 13.3734 13.3734C12.2063 14.5441 10.6523 15.1875 9 15.1875C7.34766 15.1875 5.79375 14.5441 4.62656 13.3734C3.45586 12.2063 2.8125 10.6523 2.8125 9C2.8125 7.34766 3.45586 5.79375 4.62656 4.62656C5.79375 3.45586 7.34766 2.8125 9 2.8125C10.6523 2.8125 12.2063 3.45586 13.3734 4.62656Z" fill="black"/>
</g>
<defs>
<clipPath id="clip0_4_3542">
<rect width="18" height="18" fill="white"/>
</clipPath>
</defs>
</svg>
