<svg width="20" height="20" viewBox="0 0 20 20" fill="none" xmlns="http://www.w3.org/2000/svg">
<path d="M11.3146 1.26902L11.7778 2.57062C11.8469 2.76459 11.9558 2.94191 12.0977 3.09115C12.2395 3.24038 12.4111 3.35819 12.6013 3.43698C12.7915 3.51577 12.9962 3.55377 13.202 3.54854C13.4078 3.54331 13.6102 3.49496 13.7962 3.40662L15.0442 2.81382C16.2946 2.21942 17.5994 3.52422 17.005 4.77462L16.4122 6.02262C16.3236 6.20855 16.2751 6.41102 16.2697 6.61692C16.2643 6.82281 16.3023 7.02754 16.3811 7.21782C16.4599 7.40811 16.5779 7.57972 16.7272 7.72153C16.8766 7.86334 17.0541 7.97219 17.2482 8.04102L18.5498 8.50342C19.8538 8.96742 19.8538 10.8122 18.5498 11.277L17.2482 11.7402C17.0542 11.8093 16.8769 11.9182 16.7277 12.0601C16.5785 12.2019 16.4606 12.3735 16.3819 12.5637C16.3031 12.7539 16.2651 12.9586 16.2703 13.1644C16.2755 13.3702 16.3239 13.5726 16.4122 13.7586L17.005 15.0066C17.5994 16.257 16.2946 17.5618 15.0442 16.9674L13.7962 16.3746C13.6103 16.2861 13.4079 16.2376 13.2021 16.2323C12.9963 16.2269 12.7916 16.2649 12.6014 16.3436C12.4111 16.4223 12.2395 16.5401 12.0977 16.6893C11.9558 16.8385 11.8468 17.0158 11.7778 17.2098L11.3146 18.5122C10.8506 19.8162 9.00581 19.8162 8.54181 18.5122L8.07861 17.2098C8.00949 17.0159 7.90047 16.8387 7.75859 16.6895C7.6167 16.5404 7.44512 16.4227 7.2549 16.3439C7.06469 16.2652 6.86009 16.2273 6.65431 16.2326C6.44852 16.2379 6.24613 16.2863 6.06021 16.3746L4.81221 16.9666C3.56181 17.5618 2.25701 16.257 2.85141 15.0066L3.44421 13.7586C3.53283 13.5726 3.5814 13.37 3.58677 13.164C3.59214 12.958 3.55419 12.7531 3.47539 12.5627C3.39658 12.3723 3.27867 12.2006 3.12929 12.0586C2.97991 11.9166 2.80239 11.8076 2.60821 11.7386L1.30661 11.2762C0.00261322 10.8122 0.00261322 8.96662 1.30661 8.50262L2.60821 8.04022C2.80239 7.97143 2.97997 7.86264 3.12947 7.7209C3.27896 7.57916 3.39703 7.40762 3.47606 7.21737C3.55508 7.02713 3.59329 6.82241 3.58822 6.61647C3.58315 6.41053 3.53491 6.20794 3.44661 6.02182L2.85301 4.77382C2.25861 3.52262 3.56341 2.21782 4.81461 2.81222L6.06261 3.40582C6.2485 3.49404 6.45081 3.54232 6.6565 3.54754C6.8622 3.55275 7.0667 3.51478 7.25681 3.43608C7.44692 3.35738 7.61843 3.2397 7.76025 3.09063C7.90208 2.94156 8.01108 2.76441 8.08021 2.57062L8.54261 1.26902C9.00501 -0.0349844 10.8498 -0.0349844 11.3138 1.26902H11.3146Z" fill="#FFB3CE"/>
</svg>
