<svg width="56" height="57" viewBox="0 0 56 57" fill="none" xmlns="http://www.w3.org/2000/svg">
<rect y="0.390625" width="56" height="56" rx="28" fill="black"/>
<g clip-path="url(#clip0_4_2892)">
<path d="M29.047 34.3L28.3532 34.9937C28.0595 35.2875 27.5845 35.2875 27.2938 34.9937L21.2188 28.9218C20.9251 28.6281 20.9251 28.1531 21.2188 27.8625L27.2938 21.7875C27.5876 21.4937 28.0626 21.4937 28.3532 21.7875L29.047 22.4812C29.3438 22.7781 29.3376 23.2625 29.0345 23.5531L25.2688 27.1406H34.2501C34.6657 27.1406 35.0001 27.475 35.0001 27.8906V28.8906C35.0001 29.3062 34.6657 29.6406 34.2501 29.6406H25.2688L29.0345 33.2281C29.3407 33.5187 29.347 34.0031 29.047 34.3Z" fill="#FFC501"/>
</g>
<defs>
<clipPath id="clip0_4_2892">
<rect width="16" height="16" fill="white" transform="translate(20 20.3906)"/>
</clipPath>
</defs>
</svg>
