<svg width="56" height="57" viewBox="0 0 56 57" fill="none" xmlns="http://www.w3.org/2000/svg">
<rect y="0.390625" width="56" height="56" rx="28" fill="black"/>
<rect x="56" y="56.3906" width="56" height="56" rx="28" transform="rotate(180 56 56.3906)" fill="black"/>
<rect x="56" y="56.3906" width="56" height="56" rx="28" transform="rotate(180 56 56.3906)" fill="black"/>
<g clip-path="url(#clip0_4_2865)">
<path d="M38.7418 26.9001C38.7427 27.7381 38.6097 28.5708 38.3478 29.3667C37.7513 31.5737 36.4389 33.5202 34.6165 34.9006H34.6144L28.3985 40.1083L21.6095 34.4262C19.7844 32.584 18.2575 30.0879 18.1176 27.1871C17.9907 24.577 18.861 22.0162 20.552 20.0239C22.243 18.0316 24.6283 16.7569 27.2244 16.458C29.8205 16.1591 32.433 16.8585 34.5326 18.4144C36.6321 19.9703 38.0615 22.2663 38.531 24.837C38.5421 24.8972 38.5367 24.9595 38.5154 25.017C38.6663 25.6333 38.7424 26.2657 38.742 26.9002L38.7418 26.9001Z" fill="#FFC501"/>
<path d="M28.4584 29.0377C30.6965 29.0377 32.5106 27.2236 32.5106 24.9855C32.5106 22.7476 30.6965 20.9333 28.4584 20.9333C26.2205 20.9333 24.4062 22.7475 24.4062 24.9855C24.4062 27.2235 26.2204 29.0377 28.4584 29.0377Z" fill="black"/>
</g>
<defs>
<clipPath id="clip0_4_2865">
<rect width="21" height="24" fill="white" transform="translate(17.5 16.3906)"/>
</clipPath>
</defs>
</svg>
