<svg width="21" height="24" viewBox="0 0 21 24" fill="none" xmlns="http://www.w3.org/2000/svg">
<g clip-path="url(#clip0_4_3530)">
<path d="M9.04448 14.3361C8.54048 14.5989 7.95972 14.6677 7.40865 14.5301C6.85623 14.3911 6.37317 14.056 6.04945 13.5873C5.72253 13.1351 5.55883 12.5853 5.58514 12.0279C5.61145 11.4705 5.82622 10.9386 6.19428 10.5191C6.56261 10.0869 7.07483 9.80242 7.63644 9.71817C8.19806 9.63393 8.77119 9.75561 9.25014 10.0608C10.2299 10.6741 11.3212 11.0818 12.4595 11.2585C13.3654 11.3859 14.2843 11.425 15.2069 11.5032C15.0968 8.619 12.6217 4.91793 8.20955 4.76296C6.84184 4.72723 5.49209 5.08055 4.31731 5.78183C3.13657 6.48733 2.17743 7.50994 1.54893 8.73341C0.917012 9.96221 0.638292 11.3422 0.74376 12.7199C0.849228 14.0977 1.33475 15.4192 2.14634 16.5374L2.02614 16.4462L0 22.1379L4.66345 18.7055C5.60827 19.198 6.65033 19.4755 7.71497 19.518C11.815 19.6867 14.7681 16.4462 15.1323 13.4099C15.0957 13.3921 15.057 13.3787 15.0172 13.3701C12.9461 13.1782 10.9424 13.3701 9.04521 14.3368" fill="#FFC501"/>
</g>
<defs>
<clipPath id="clip0_4_3530">
<rect width="21" height="24" fill="white"/>
</clipPath>
</defs>
</svg>
