<svg width="15" height="18" viewBox="0 0 15 18" fill="none" xmlns="http://www.w3.org/2000/svg">
<path d="M14.694 8.34708C14.6946 8.93373 14.6015 9.51671 14.4182 10.074C14.0006 11.6191 13.0817 12.9818 11.8059 13.9482H11.8044L7.45272 17.5941L2.69974 13.6161C1.42197 12.3264 0.353046 10.5788 0.255098 8.54802C0.166232 6.72068 0.775494 4.92791 1.95939 3.53311C3.14328 2.1383 4.81322 1.24583 6.63071 1.03658C8.44821 0.827337 10.2773 1.31698 11.7472 2.40626C13.217 3.49553 14.2178 5.10295 14.5465 6.90268C14.5542 6.94488 14.5504 6.98847 14.5355 7.0287C14.6412 7.46022 14.6944 7.90291 14.6941 8.34718L14.694 8.34708Z" fill="#02C27F"/>
<path d="M7.49464 9.84377C9.06151 9.84377 10.3316 8.57371 10.3316 7.00685C10.3316 5.44008 9.06151 4.16992 7.49464 4.16992C5.92787 4.16992 4.65771 5.43998 4.65771 7.00685C4.65771 8.57361 5.92777 9.84377 7.49464 9.84377Z" fill="#FFEDB3"/>
</svg>
