<svg width="18" height="25" viewBox="0 0 18 25" fill="none" xmlns="http://www.w3.org/2000/svg">
<g clip-path="url(#clip0_4_3019)">
<path d="M14.694 11.3471C14.6946 11.9337 14.6015 12.5167 14.4182 13.074C14.0006 14.6191 13.0817 15.9818 11.8059 16.9482H11.8044L7.45272 20.5941L2.69974 16.6161C1.42197 15.3264 0.353046 13.5788 0.255098 11.548C0.166232 9.72068 0.775494 7.92791 1.95939 6.53311C3.14328 5.1383 4.81322 4.24583 6.63071 4.03658C8.44821 3.82734 10.2773 4.31698 11.7472 5.40626C13.217 6.49553 14.2178 8.10295 14.5465 9.90268C14.5542 9.94488 14.5504 9.98847 14.5355 10.0287C14.6412 10.4602 14.6944 10.9029 14.6941 11.3472L14.694 11.3471Z" fill="#02C27F"/>
<path d="M7.49464 12.8438C9.06151 12.8438 10.3316 11.5737 10.3316 10.0068C10.3316 8.44008 9.06151 7.16992 7.49464 7.16992C5.92787 7.16992 4.65771 8.43998 4.65771 10.0068C4.65771 11.5736 5.92777 12.8438 7.49464 12.8438Z" fill="#FFEDB3"/>
</g>
<defs>
<clipPath id="clip0_4_3019">
<rect width="17" height="24" fill="white" transform="translate(0.15625 0.390625)"/>
</clipPath>
</defs>
</svg>
