<svg width="1440" height="980" viewBox="0 0 1440 980" fill="none" xmlns="http://www.w3.org/2000/svg">
<path fill-rule="evenodd" clip-rule="evenodd" d="M1440 35.993V490.309H0V46.9036L86.25 32.0651L96 24.646L142.5 29.8831L187.875 37.3022L202.5 44.7215L244.5 27.7009L276 29.8831L360.75 11.9896L398.625 31.6288L423.375 24.2095L452.25 30.3194L496.875 24.2095H540L584.812 30.5377L605.625 44.7215L616.5 50.8314L636 55.632L677.25 56.9414L720.75 46.4672L810.656 45.1579L855.375 38.6115L876 52.1407L903 45.1579L990.371 52.1407L1029 49.5221L1045.88 39.9208L1038.37 15.9175L1072.5 16.3538L1093.31 11.335L1122.75 12.4261L1144.88 5.44324H1162.88L1177.88 8.06183L1197.75 15.481H1204.5L1218.75 0.642578L1230 8.06183L1251.37 3.26111L1259.63 8.93468L1269.37 3.26111L1284 15.481L1298.53 11.444L1310.25 12.4261L1322.63 22.4638L1341.37 27.2645L1390.12 35.5565L1413.75 32.0651L1440 35.993ZM0 944.635V490.318H1440V933.725L1353.75 948.562L1344 955.982L1297.5 950.745L1252.12 943.325L1237.5 935.907L1195.5 952.927L1164 950.745L1079.25 968.639L1041.37 948.999L1016.63 956.419L987.752 950.308L943.125 956.419H900L855.188 950.09L834.375 935.907L823.5 929.797L804 924.996L762.75 923.687L719.25 934.161L629.344 935.47L584.625 942.016L564 928.487L537 935.47L449.625 928.487L411 931.105L394.125 940.707L401.625 964.71L367.5 964.274L346.688 969.292L317.25 968.202L295.125 975.185H277.125L262.125 972.567L242.25 965.147H235.5L221.25 979.985L210 972.567L188.625 977.367L180.375 971.693L170.625 977.367L156 965.147L141.469 969.184L129.75 968.202L117.375 958.164L98.6248 953.364L49.875 945.071L26.25 948.562L0 944.635Z" fill="white"/>
</svg>
