<svg width="128" height="146" viewBox="0 0 128 146" fill="none" xmlns="http://www.w3.org/2000/svg">
<path d="M78.2946 110.764L79.2379 110.481C79.8821 110.282 80.3361 109.834 80.4285 109.288L84.7452 71.1601C84.8158 70.736 84.6718 70.2902 84.3347 69.9205L76.2504 61.0017C75.9052 60.6157 75.3833 60.3466 74.807 60.2433L45.5606 40.8998C44.9898 40.8019 44.419 40.8835 43.9623 41.1254L33.3935 46.7686C32.9504 47.0051 32.6541 47.3775 32.5861 47.8097L23.7815 99.8492C23.6836 100.412 23.9772 100.997 24.5508 101.399L24.7438 101.538C26.016 102.429 25.6952 103.976 24.1594 104.329C23.6837 104.441 23.3031 104.68 23.0612 105.001C22.9334 105.172 22.8491 105.362 22.8084 105.569L20.2151 120.925C20.0629 121.827 20.9028 122.724 22.0962 122.917C31.0802 124.361 65.5267 129.887 74.421 131.319C75.5844 131.507 76.6391 130.944 76.7941 130.055L79.3303 115.583C79.4309 115.034 79.1509 114.46 78.6045 114.055L77.8352 113.485C76.6636 112.62 76.9137 111.185 78.3 110.758L78.2946 110.764ZM55.6782 69.945C53.5443 69.5834 52.1064 67.5637 52.4679 65.4271C52.8294 63.2905 54.8491 61.8553 56.9857 62.2168C59.1169 62.5783 60.5576 64.598 60.1961 66.7346C59.8345 68.8712 57.8094 70.3038 55.6782 69.945Z" fill="#F58750" stroke="black" stroke-width="2.10669" stroke-linecap="round" stroke-linejoin="round"/>
<path d="M74.3045 111.464L72.293 111.121" stroke="black" stroke-width="2.10669" stroke-linecap="round" stroke-linejoin="round"/>
<path d="M68.5581 110.484L33.0732 104.441" stroke="black" stroke-width="2.10669" stroke-linecap="round" stroke-linejoin="round"/>
<path d="M31.2059 104.123L29.1943 103.781" stroke="black" stroke-width="2.10669" stroke-linecap="round" stroke-linejoin="round"/>
<path d="M95.0849 102.143L95.9684 101.706C96.5719 101.401 96.9443 100.885 96.9443 100.33L97.2351 47.8608C97.2351 47.4313 97.0177 47.0154 96.6235 46.7083L87.1638 39.2655C86.7587 38.942 86.2015 38.7626 85.6143 38.7599L51.1543 38.7246C50.5753 38.7246 50.0262 38.8986 49.6157 39.2139L40.1369 46.5397C39.7401 46.8469 39.509 47.2655 39.5144 47.7005V100.48C39.5117 101.051 39.8977 101.578 40.5311 101.88L40.7458 101.986C42.1512 102.654 42.0887 104.231 40.6371 104.834C40.1886 105.025 39.8515 105.324 39.6667 105.68C39.5688 105.87 39.5172 106.071 39.5117 106.283V121.856C39.5144 122.773 40.4958 123.517 41.7027 123.509C50.8036 123.433 85.6877 123.137 94.6962 123.063C95.8732 123.055 96.8219 122.321 96.8247 121.419L96.9089 106.726C96.9171 106.169 96.5447 105.65 95.9385 105.343L95.0849 104.911C93.7856 104.255 93.7937 102.798 95.0877 102.146L95.0849 102.143ZM68.3721 51.5115C66.2056 51.5115 64.455 49.7582 64.455 47.5944C64.455 45.4307 66.2083 43.6774 68.3721 43.6774C70.5359 43.6774 72.2892 45.4307 72.2892 47.5944C72.2892 49.7582 70.5331 51.5115 68.3721 51.5115Z" fill="#FFC60C" stroke="black" stroke-width="2.10669" stroke-linecap="round" stroke-linejoin="round"/>
<path d="M91.2653 103.496L89.2266 103.494" stroke="black" stroke-width="2.10669" stroke-linecap="round" stroke-linejoin="round"/>
<path d="M85.4373 103.494L49.4414 103.455" stroke="black" stroke-width="2.10669" stroke-linecap="round" stroke-linejoin="round"/>
<path d="M47.5465 103.451L45.5078 103.449" stroke="black" stroke-width="2.10669" stroke-linecap="round" stroke-linejoin="round"/>
<path d="M58.0568 38.0751C56.2736 35.4819 55.0068 32.5461 55.0068 29.4336C55.0014 18.8893 61.4955 10.3375 69.5145 10.332C77.5335 10.3266 84.0384 18.8702 84.0466 29.4146C84.052 39.9589 69.539 48.5162 69.539 48.5162C69.539 48.5162 67.8699 47.5349 65.6626 45.825" stroke="black" stroke-width="2.10669" stroke-linecap="round" stroke-linejoin="round"/>
<g style="mix-blend-mode:multiply">
<path d="M48.0944 68.2032C47.7193 62.897 51.9626 58.5042 57.2442 58.6809C61.6751 58.8277 65.3611 62.3561 65.7335 66.7761C66.2201 72.5334 61.1858 77.247 55.4692 76.2956C51.4705 75.6296 48.3825 72.248 48.0971 68.2032H48.0944ZM60.8813 66.6999C60.5198 64.982 59.0302 63.6744 57.2796 63.5331C54.8983 63.3401 52.9493 65.1913 52.914 67.4883C52.8813 69.6928 54.6292 71.5413 56.8827 71.5739C59.3836 71.6119 61.4277 69.2959 60.8813 66.6999ZM75.8022 59.529C77.7213 59.5562 78.9744 61.5542 78.1644 63.2939L64.1161 93.5161C63.6758 94.4621 62.7189 95.0628 61.6751 95.0465C59.756 95.0193 58.5028 93.0214 59.3129 91.2817L73.3611 61.0594C73.8015 60.1135 74.7583 59.5127 75.8022 59.5263V59.529ZM72.146 86.9079C72.2167 82.0611 76.2507 78.1413 81.0975 78.2147C86.1807 78.2908 90.1358 82.5151 89.8205 87.6011C89.5405 92.1135 85.7893 95.7533 81.2714 95.9028C76.18 96.0686 72.0726 91.9911 72.146 86.9106V86.9079ZM84.9221 87.8104C85.4141 85.1953 83.3536 82.8522 80.7033 83.0153C78.7543 83.1349 77.1369 84.7088 76.9574 86.6524C76.7155 89.3 78.9989 91.4257 81.6248 91.0125C83.2721 90.7516 84.6122 89.4495 84.9221 87.8104Z" fill="#FFC60C"/>
<path d="M78.2107 63.1806C78.2107 63.1806 80.5186 58.3121 75.5984 56.7871L74.1387 59.4021L78.2107 63.1806Z" fill="#FFC60C"/>
<path d="M60.456 94.7295C60.456 94.7295 56.0251 93.0197 58.3194 89.0645L61.6466 90.5732L60.4533 94.7295H60.456Z" fill="#FFC60C"/>
</g>
<path d="M46.7184 65.5021C46.3433 60.1959 50.5866 55.8031 55.8683 55.9798C60.2991 56.1266 63.9851 59.655 64.3576 64.075C64.8441 69.8324 59.8098 74.5459 54.0932 73.5945C50.0946 72.9285 47.0066 69.547 46.7211 65.5021H46.7184ZM59.5054 63.9989C59.1438 62.2809 57.6542 60.9734 55.9036 60.832C53.5223 60.639 51.5733 62.4902 51.538 64.7872C51.5054 66.9917 53.2532 68.8402 55.5067 68.8728C58.0076 68.9109 60.0517 66.5949 59.5054 63.9989ZM74.4262 56.8279C76.3453 56.8551 77.5985 58.8531 76.7884 60.5928L62.7402 90.815C62.2998 91.761 61.3429 92.3618 60.2991 92.3455C58.38 92.3183 57.1268 90.3203 57.9369 88.5806L71.9851 58.3584C72.4255 57.4124 73.3824 56.8116 74.4262 56.8252V56.8279ZM70.7701 84.2068C70.8407 79.3601 74.8747 75.4402 79.7215 75.5136C84.8047 75.5898 88.7599 79.814 88.4445 84.9C88.1646 89.4124 84.4133 93.0522 79.8954 93.2017C74.804 93.3675 70.6967 89.2901 70.7701 84.2095V84.2068ZM83.5461 85.1093C84.0381 82.4943 81.9777 80.1511 79.3273 80.3142C77.3783 80.4338 75.7609 82.0077 75.5815 83.9513C75.3395 86.5989 77.6229 88.7247 80.2488 88.3115C81.8961 88.0505 83.2362 86.7484 83.5461 85.1093Z" fill="#0C513F" stroke="black" stroke-width="1.31668" stroke-linecap="round" stroke-linejoin="round"/>
</svg>
