<svg width="210" height="473" viewBox="0 0 210 473" fill="none" xmlns="http://www.w3.org/2000/svg">
<g clip-path="url(#clip0_4_3382)">
<path d="M175.027 3.19645V18.4747C170.633 19.0411 161.892 19.4315 151.826 19.4315C141.056 19.4315 131.802 18.9876 127.768 18.3599V3.19645C127.768 2.45397 128.044 1.76507 128.503 1.25222C132.95 2.36977 141.347 3.12756 150.984 3.12756C161.111 3.12756 169.883 2.29323 174.116 1.07617C174.674 1.60433 175.019 2.36977 175.019 3.20411H175.027V3.19645Z" fill="#FFC501"/>
<path d="M178.196 35.9342C178.196 36.2403 176.948 36.7762 175.019 37.0211C170.625 37.5875 161.884 37.9779 151.819 37.9779C141.049 37.9779 131.794 37.5339 127.761 36.9063C126.368 36.692 125.189 36.5695 125.135 36.0643C125.112 35.8117 125.242 35.3984 126.329 35.2453V18.1146C130.363 18.7499 141.049 19.4312 151.811 19.4312C161.876 19.4312 171.904 18.6045 176.297 18.0381V34.9314C178.356 35.1458 178.18 35.6356 178.18 35.9342H178.196Z" fill="#ED5E3B"/>
<path d="M175.027 37.0211V98.8383H127.776V36.9062C131.81 37.5416 141.064 37.9779 151.834 37.9779C161.899 37.9779 170.633 37.5952 175.034 37.0211H175.027Z" fill="#FF884D"/>
<path d="M209.992 182.425V450.928C209.992 456.14 202.69 472.391 152.691 472.391C98.934 472.391 94.8618 456.133 94.8618 450.912V182.425C94.8618 169.474 100.182 157.762 108.755 149.366C113.692 143.755 126.957 127.91 127.799 118.357H174.989C175.731 127.344 188.828 141.918 194.905 148.233C204.183 156.699 210 168.884 210 182.433H209.992V182.425Z" fill="#FF884D"/>
<path d="M174.124 1.06839C169.891 2.28545 161.119 3.11978 150.992 3.11978C140.865 3.11978 132.95 2.36199 128.511 1.24445C129.054 0.609127 129.858 0.21875 130.753 0.21875H172.049C172.861 0.21875 173.595 0.532582 174.124 1.06839Z" fill="#ED5E3B"/>
<path d="M115.827 211.015V319.999H115.429C110.569 318.927 105.8 317.557 101.2 315.835V208.933C104.744 209.553 109.688 210.318 115.827 211.015Z" fill="#FFC501"/>
<path d="M101.2 208.932V315.834C99.0333 315.03 96.9131 314.143 94.8311 313.178V207.685C94.8311 207.685 97.0585 208.213 101.2 208.932Z" fill="#FEDC67"/>
<path d="M209.992 208.267V315.283C209.992 315.283 159.197 329.689 115.429 319.998H115.827V211.015C136.349 213.364 170.25 215.018 209.992 208.267Z" fill="#FEDC67"/>
<path d="M175.027 93.7334V118.35C175.027 118.35 167.648 121.565 152.867 121.565C135.002 121.565 127.768 118.35 127.768 118.35V93.7334C127.768 93.7334 138.147 96.3665 151.619 96.3665C163.461 96.3665 175.027 93.7334 175.027 93.7334Z" fill="#ED5E3B"/>
<path d="M102.179 463.19L105.593 458.444C109.482 455.107 111.694 450.223 111.64 445.102L110.04 306.473C109.964 299.561 107.468 292.886 102.983 287.62L94.4482 277.577L95.8107 456.829L102.179 463.197V463.19Z" fill="#FFC501"/>
<path d="M103.496 449.052C103.496 449.052 101.911 453.667 91.8686 457.617C84.3366 460.587 72.0513 463.189 52.1038 463.189C32.1563 463.189 20.0393 460.648 12.3619 457.724C1.93657 453.744 0.130126 449.059 0.130126 449.059L0 307.069C0 293.751 8.04482 290.436 10.8234 284.183C15.6763 286.425 30.878 289.235 51.9583 289.235C71.5001 289.235 88.0337 287.214 93.5067 284.428C95.1906 290.092 103.373 295.672 103.373 307.046L103.503 449.059H103.496V449.052Z" fill="#FFC501"/>
<path d="M91.8685 457.617C91.4552 464.697 73.8193 470.392 52.119 470.392C30.4186 470.392 12.9359 464.743 12.3618 457.717C20.0392 460.641 32.3782 463.182 52.1037 463.182C71.8292 463.182 84.3365 460.587 91.8685 457.609V457.617Z" fill="#E5AA03"/>
<path d="M95.4203 282.414C95.4203 283.119 94.7467 283.792 93.499 284.428C88.0337 287.206 71.5001 289.235 51.9507 289.235C30.8627 289.235 13.2881 286.877 9.3231 283.746C8.77198 283.325 8.48877 282.874 8.48877 282.422C8.48877 281.611 9.39199 280.83 11.053 280.118C17.3909 282.644 33.1208 284.443 51.5144 284.443C69.908 284.443 86.388 282.568 92.4197 279.927C94.3486 280.708 95.4126 281.542 95.4126 282.422H95.4203V282.414Z" fill="#FFDC67"/>
<path d="M102.861 302.293C102.861 302.293 102.807 302.323 102.776 302.339C96.0864 305.737 75.8634 308.21 51.9586 308.21C28.0537 308.21 6.34574 305.546 0.459473 301.941C0.803923 300.104 1.33208 298.504 1.9674 297.073C4.53164 291.378 8.91763 288.469 10.8159 284.175C15.6688 286.418 30.8706 289.227 51.9586 289.227C71.5003 289.227 88.0339 287.206 93.5069 284.42C94.6015 288.109 98.4593 291.768 101.008 297.011C101.789 298.611 102.447 300.356 102.861 302.301V302.293Z" fill="#FFD134"/>
<path d="M92.4273 279.912C90.4754 280.769 87.4672 281.542 83.6476 282.193C75.687 280.784 64.0446 279.889 51.078 279.889C38.1113 279.889 26.8899 280.746 18.9446 282.116C15.6226 281.527 12.9282 280.846 11.0605 280.103C17.0922 277.47 33.136 275.587 51.9582 275.587C70.7805 275.587 86.0894 277.386 92.4273 279.912Z" fill="#FFD134"/>
<path d="M83.6478 282.193C75.7025 283.563 64.2515 284.428 51.5221 284.428C38.7928 284.428 26.9054 283.54 18.9448 282.124C26.8901 280.761 38.3488 279.896 51.0782 279.896C63.8075 279.896 75.6872 280.784 83.6478 282.2V282.193Z" fill="#FFC501"/>
<path d="M51.943 377.521C51.943 409.861 35.7615 436.07 15.7988 436.07C10.1804 436.07 4.86056 433.996 0.114803 430.291L0.0229492 324.828C4.79167 321.07 10.1421 318.957 15.8064 318.957C35.7692 318.957 51.9507 345.173 51.9507 377.514H51.943V377.521Z" fill="#ED5E3B"/>
<path opacity="0.8" d="M81.5274 340.795C75.4115 341.162 80.0425 328.938 81.5274 328.625C82.7981 328.357 87.2683 340.451 81.5274 340.795Z" fill="#CEC095"/>
<path opacity="0.8" d="M82.0247 339.716C75.8629 340.091 80.5321 327.767 82.0247 327.446C83.303 327.17 87.8115 339.364 82.0247 339.716Z" fill="#FEF9E5"/>
<path opacity="0.8" d="M50.6647 439.254C44.5488 439.621 49.1797 427.397 50.6647 427.083C51.9353 426.816 56.4055 438.91 50.6647 439.254Z" fill="#CEC095"/>
<path opacity="0.8" d="M51.162 438.183C45.0001 438.558 49.6693 426.234 51.162 425.913C52.4402 425.637 56.9487 437.831 51.162 438.183Z" fill="#FEF9E5"/>
<path opacity="0.8" d="M81.5578 325.662C81.3665 325.815 81.0909 325.723 81.0373 325.486C80.7694 324.292 79.3457 321.789 81.7109 316.967C81.7109 316.967 81.2823 319.164 82.2697 321.636C83.2265 324.024 82.1089 325.234 81.5578 325.67V325.662Z" fill="#CEC095"/>
<path opacity="0.8" d="M81.5578 324.866C81.3665 325.019 81.0909 324.928 81.0373 324.69C80.7694 323.496 79.3457 320.993 81.7109 316.171C81.7109 316.171 81.2823 318.368 82.2697 320.84C83.2265 323.228 82.1089 324.438 81.5578 324.874V324.866Z" fill="#FEF9E5"/>
<path opacity="0.8" d="M50.4885 422.859C50.2971 423.012 50.0216 422.92 49.968 422.682C49.7001 421.488 48.2764 418.985 50.6416 414.163C50.6416 414.163 50.2129 416.36 51.2004 418.832C52.1572 421.221 51.0396 422.43 50.4885 422.866V422.859Z" fill="#CEC095"/>
<path opacity="0.8" d="M50.4885 422.063C50.2971 422.216 50.0216 422.124 49.968 421.887C49.7001 420.692 48.2764 418.189 50.6416 413.367C50.6416 413.367 50.2129 415.564 51.2004 418.036C52.1572 420.425 51.0396 421.634 50.4885 422.07V422.063Z" fill="#FEF9E5"/>
</g>
<defs>
<clipPath id="clip0_4_3382">
<rect width="210" height="472.172" fill="white" transform="translate(0 0.21875)"/>
</clipPath>
</defs>
</svg>
