<svg width="128" height="128" viewBox="0 0 128 128" fill="none" xmlns="http://www.w3.org/2000/svg">
<path d="M64 124.391C97.137 124.391 124 97.5276 124 64.3906C124 31.2536 97.137 4.39062 64 4.39062C30.863 4.39062 4 31.2536 4 64.3906C4 97.5276 30.863 124.391 64 124.391Z" fill="#0C513F" stroke="white" stroke-width="7.09" stroke-miterlimit="10"/>
<path d="M23.3829 55.1741C23.0329 56.7131 21.7829 57.7501 19.7589 57.2861C17.7289 56.8221 17.0409 55.3491 17.4129 53.8161C17.7779 52.2821 19.0109 51.2401 21.0359 51.7031C23.0599 52.1671 23.7319 53.6411 23.3819 55.1741H23.3829ZM18.1159 53.9741C17.8549 55.0491 18.3509 56.0421 19.9609 56.4071C21.5759 56.7781 22.4329 56.0911 22.6789 55.0161C22.9239 53.9361 22.4439 52.9471 20.8339 52.5821C19.2139 52.2111 18.3679 52.9091 18.1159 53.9731V53.9741ZM23.1209 39.8071L23.5799 38.9891L27.7599 43.8191L27.3449 44.5601L21.0419 43.5231L21.4999 42.7051L26.4829 43.5891L23.1209 39.8131V39.8071ZM32.1409 29.9741L29.9529 32.1631L31.2629 33.4731L33.1179 31.6171L33.6579 32.1571L31.8029 34.0121L33.1179 35.3281L35.3059 33.1391L35.8459 33.6791L33.0579 36.4681L28.8129 32.2231L31.6009 29.4341L32.1409 29.9741ZM45.1729 27.2511L44.3379 27.7261L42.3739 26.5091C42.3189 26.5521 42.2589 26.5851 42.1989 26.6181L41.0479 27.2781L42.0519 29.0351L41.3149 29.4551L38.3299 24.2451L40.2239 23.1641C41.4139 22.4811 42.4829 22.6891 43.1159 23.7971C43.5739 24.5991 43.5139 25.3571 42.9959 25.9691L45.1679 27.2451L45.1729 27.2511ZM39.4209 24.4351L40.6979 26.6671L41.8499 26.0071C42.6249 25.5651 42.7499 24.8671 42.3799 24.2221C42.0079 23.5721 41.3479 23.3321 40.5729 23.7751L39.4219 24.4351H39.4209ZM55.8199 23.6381L54.8699 22.1811L52.5949 22.7261L52.4089 24.4561L51.4979 24.6741L52.2999 18.3061L53.1239 18.1101L56.7259 23.4201L55.8149 23.6381H55.8199ZM52.6819 21.9621L54.4499 21.5371L52.9769 19.2771L52.6819 21.9571V21.9621ZM64.4959 22.1651L67.3339 22.2691L67.3059 23.0051L63.6229 22.8691L63.8469 16.8711L64.6929 16.9041L64.4959 22.1641V22.1651ZM75.1039 23.6771L77.8219 24.4901L77.6089 25.2001L74.0789 24.1401L75.8029 18.3891L76.6159 18.6351L75.1039 23.6771ZM95.1919 34.4311C94.3179 35.3631 93.3519 35.1831 92.3539 34.2451L90.6889 32.6841L94.8039 28.3131L96.2769 29.6991C97.2539 30.6161 97.4289 31.4291 96.6699 32.2371C96.2449 32.6841 95.8399 32.8101 95.3929 32.6671C95.7749 33.2511 95.7919 33.7971 95.1919 34.4361V34.4301V34.4311ZM92.8339 33.7311C93.4839 34.3431 94.0619 34.3921 94.5739 33.8461C95.0879 33.3011 94.9409 32.7931 94.2909 32.1821L93.2489 31.2001L91.7919 32.7501L92.8339 33.7321V33.7311ZM94.9399 29.4041L93.7069 30.7141L94.5639 31.5161C95.1539 32.0671 95.6659 32.1871 96.1189 31.7071C96.5719 31.2271 96.3869 30.7571 95.8029 30.2071L94.9459 29.4041H94.9409H94.9399ZM104.813 41.7791L103.197 39.1381L101.615 40.1041L102.985 42.3411L102.335 42.7391L100.966 40.5021L99.3779 41.4731L100.993 44.1151L100.343 44.5131L98.2859 41.1461L103.405 38.0081L105.462 41.3751L104.813 41.7731V41.7791ZM105.014 51.0761C104.277 51.3601 104.228 52.1351 104.403 52.7361C104.583 53.3631 105.03 53.9851 105.876 53.7391C107.524 53.2641 105.014 50.3561 107.366 49.6791C108.381 49.3851 109.271 50.0231 109.593 51.2131C109.865 52.2231 109.571 53.1441 108.752 53.5261L108.392 52.8011C109.003 52.5441 109.107 51.9331 108.954 51.3981C108.79 50.8311 108.365 50.2851 107.606 50.5031C106.133 50.9291 108.632 53.8431 106.116 54.5631C105.358 54.7821 104.206 54.6561 103.71 52.9371C103.241 51.3051 103.95 50.6071 104.654 50.3291L105.014 51.0821V51.0761ZM110.646 66.4391L110.614 64.5071L105.375 64.5951L105.358 63.7431L110.597 63.6611L110.564 61.7241L111.328 61.7141L111.405 66.4281L110.641 66.4391H110.646ZM107.295 83.7491L106.946 84.5231L101.483 82.0351L101.833 81.2601L107.295 83.7491ZM100.36 94.9231L99.8359 95.5941L95.1049 91.8941L95.6279 91.2241L101.222 91.7311L97.5059 88.8221L98.0289 88.1511L102.761 91.8511L102.237 92.5211L96.6269 91.9981L100.365 94.9231H100.36ZM79.7869 106.133C78.9469 104.272 79.8089 102.831 81.3369 102.144L83.1869 101.309L85.6529 106.777L83.8029 107.612C82.2809 108.299 80.6269 107.994 79.7869 106.133ZM81.6259 102.793C80.5399 103.284 79.9229 104.294 80.5889 105.773C81.2599 107.257 82.4279 107.454 83.5089 106.968L84.5889 106.482L82.7059 102.308L81.6259 102.793ZM68.7799 111.021L71.8419 110.562L71.5689 108.729L68.9719 109.116L68.8569 108.363L71.4549 107.976L71.1819 106.137L68.1209 106.595L68.0059 105.842L71.9079 105.258L72.7919 111.195L68.8899 111.779L68.7749 111.026L68.7809 111.021H68.7799ZM60.1479 106.584L57.3259 106.279L57.4079 105.547L61.0749 105.946L60.4249 111.91L59.5799 111.817L60.1479 106.584ZM48.7479 109.559L47.9449 109.281L49.8989 103.606L50.7009 103.884L48.7479 109.559ZM36.7099 103.551L35.9239 103.043L40.9989 99.1741L41.7139 99.6331L40.2889 105.854L39.5039 105.346L40.6939 100.429L36.7149 103.551H36.7099ZM27.4479 93.9471L29.4999 96.2671L30.8859 95.0391L29.1459 93.0741L29.7179 92.5671L31.4579 94.5311L32.8499 93.2981L30.7989 90.9781L31.3719 90.4711L33.9859 93.4231L29.4889 97.4011L26.8749 94.4491L27.4479 93.9421V93.9471ZM25.5379 80.7561L25.9629 81.6191L24.6259 83.5011C24.6639 83.5611 24.6969 83.6211 24.7239 83.6811L25.3139 84.8761L27.1309 83.9811L27.5079 84.7451L22.1219 87.3971L21.1619 85.4441C20.5549 84.2111 20.8279 83.1571 21.9739 82.5951C22.8039 82.1861 23.5569 82.2951 24.1349 82.8521L25.5429 80.7621L25.5379 80.7561ZM22.3679 86.3221L24.6749 85.1871L24.0859 83.9921C23.6929 83.1901 23.0059 83.0211 22.3339 83.3541C21.6639 83.6811 21.3789 84.3311 21.7719 85.1331L22.3619 86.3281L22.3669 86.3221H22.3679ZM16.7689 71.4371L16.5889 70.4501L19.9449 71.9561L22.8589 71.4321L23.0119 72.2781L20.0979 72.8021L17.4779 75.3991L17.2979 74.4111L19.2579 72.5181L16.7639 71.4431L16.7689 71.4371Z" fill="white"/>
<path d="M63.9998 44.5449L70.4498 57.6089L84.8738 59.7049L74.4338 69.8769L76.9008 84.2399L63.9998 77.4569L51.1038 84.2399L53.5658 69.8769L43.1318 59.7049L57.5548 57.6089L63.9998 44.5449Z" fill="#FFC501"/>
</svg>
