<svg width="25" height="23" viewBox="0 0 25 23" fill="none" xmlns="http://www.w3.org/2000/svg">
<g clip-path="url(#clip0_4_2576)">
<path d="M13.2188 10.9839L3.46533 21.0895L3.46677 21.0953C3.62404 21.6474 3.95809 22.1328 4.41769 22.4768C4.87729 22.8209 5.43706 23.0046 6.01114 23C6.49846 23 6.95558 22.8706 7.34802 22.6464L7.37964 22.6277L18.3578 16.445L13.2188 10.9825V10.9839Z" fill="#EA4335"/>
<path d="M23.0874 9.26326L23.0773 9.25751L18.3379 6.57513L12.9976 11.2125L18.3566 16.4421L23.0716 13.7871C23.8981 13.3515 24.4587 12.5019 24.4587 11.5201C24.4587 10.5469 23.9053 9.70026 23.0874 9.26326Z" fill="#FBBC04"/>
<path d="M3.46412 1.91187C3.40662 2.12174 3.375 2.34312 3.375 2.57312V20.4269C3.375 20.6569 3.40519 20.8797 3.46412 21.0881L13.5554 11.2427L3.46269 1.91187H3.46412Z" fill="#4285F4"/>
<path d="M13.2906 11.5L18.3391 6.57369L7.37102 0.368001C6.95848 0.126688 6.48908 -0.000336894 6.01114 6.71052e-07C4.79214 6.71052e-07 3.76289 0.809313 3.46533 1.90756V1.91044L13.2892 11.5H13.2906Z" fill="#34A853"/>
</g>
<defs>
<clipPath id="clip0_4_2576">
<rect width="24" height="23" fill="white" transform="translate(0.71875)"/>
</clipPath>
</defs>
</svg>
