<svg width="48" height="49" viewBox="0 0 48 49" fill="none" xmlns="http://www.w3.org/2000/svg">
<rect y="0.46875" width="48" height="48" rx="24" fill="#0C513F"/>
<g clip-path="url(#clip0_4_2598)">
<path d="M23.348 24.1098L16.563 31.1398L16.564 31.1438C16.6734 31.5279 16.9058 31.8655 17.2255 32.1048C17.5452 32.3442 17.9346 32.472 18.334 32.4688C18.673 32.4688 18.991 32.3788 19.264 32.2228L19.286 32.2098L26.923 27.9088L23.348 24.1088V24.1098Z" fill="#EA4335"/>
<path d="M30.2128 22.9127L30.2058 22.9087L26.9088 21.0427L23.1938 24.2687L26.9218 27.9067L30.2018 26.0597C30.7768 25.7567 31.1668 25.1657 31.1668 24.4827C31.1668 23.8057 30.7818 23.2167 30.2128 22.9127Z" fill="#FBBC04"/>
<path d="M16.562 17.7987C16.522 17.9447 16.5 18.0987 16.5 18.2587V30.6787C16.5 30.8387 16.521 30.9937 16.562 31.1387L23.582 24.2897L16.561 17.7987H16.562Z" fill="#4285F4"/>
<path d="M23.398 24.4688L26.91 21.0418L19.28 16.7248C18.993 16.5569 18.6665 16.4685 18.334 16.4688C17.486 16.4688 16.77 17.0318 16.563 17.7958V17.7978L23.397 24.4688H23.398Z" fill="#34A853"/>
</g>
<defs>
<clipPath id="clip0_4_2598">
<rect width="15" height="16" fill="white" transform="translate(16.5 16.4688)"/>
</clipPath>
</defs>
</svg>
