<svg width="15" height="17" viewBox="0 0 15 17" fill="none" xmlns="http://www.w3.org/2000/svg">
<g clip-path="url(#clip0_4_3348)">
<path d="M6.84799 8.03127L0.0629883 15.0613L0.0639883 15.0653C0.173394 15.4494 0.405777 15.787 0.725497 16.0263C1.04522 16.2657 1.43462 16.3935 1.83399 16.3903C2.17299 16.3903 2.49099 16.3003 2.76399 16.1443L2.78599 16.1313L10.423 11.8303L6.84799 8.03027V8.03127Z" fill="#EA4335"/>
<path d="M13.7128 6.83484L13.7058 6.83084L10.4088 4.96484L6.69385 8.19084L10.4218 11.8288L13.7018 9.98184C14.2768 9.67884 14.6668 9.08784 14.6668 8.40484C14.6668 7.72784 14.2818 7.13884 13.7128 6.83484Z" fill="#FBBC04"/>
<path d="M0.062 1.7207C0.022 1.8667 0 2.0207 0 2.1807V14.6007C0 14.7607 0.021 14.9157 0.062 15.0607L7.082 8.2117L0.061 1.7207H0.062Z" fill="#4285F4"/>
<path d="M6.89799 8.39062L10.41 4.96363L2.77999 0.646625C2.493 0.478755 2.16647 0.390391 1.83399 0.390625C0.985988 0.390625 0.269988 0.953626 0.0629883 1.71763V1.71963L6.89699 8.39062H6.89799Z" fill="#34A853"/>
</g>
<defs>
<clipPath id="clip0_4_3348">
<rect width="15" height="16" fill="white" transform="translate(0 0.390625)"/>
</clipPath>
</defs>
</svg>
