<svg width="56" height="57" viewBox="0 0 56 57" fill="none" xmlns="http://www.w3.org/2000/svg">
<rect y="0.390625" width="56" height="56" rx="28" fill="black"/>
<g clip-path="url(#clip0_4_2896)">
<path d="M26.9531 22.4812L27.6469 21.7875C27.9406 21.4937 28.4156 21.4937 28.7063 21.7875L34.7812 27.8593C35.075 28.1531 35.075 28.6281 34.7812 28.9187L28.7063 34.9937C28.4125 35.2875 27.9375 35.2875 27.6469 34.9937L26.9531 34.3C26.6562 34.0031 26.6625 33.5187 26.9656 33.2281L30.7312 29.6406H21.75C21.3344 29.6406 21 29.3062 21 28.8906V27.8906C21 27.475 21.3344 27.1406 21.75 27.1406H30.7312L26.9656 23.5531C26.6594 23.2625 26.6531 22.7781 26.9531 22.4812Z" fill="#FFC501"/>
</g>
<defs>
<clipPath id="clip0_4_2896">
<rect width="16" height="16" fill="white" transform="translate(20 20.3906)"/>
</clipPath>
</defs>
</svg>
