<svg width="24" height="25" viewBox="0 0 24 25" fill="none" xmlns="http://www.w3.org/2000/svg">
<g clip-path="url(#clip0_4_2774)">
<path d="M13.733 2.14486L14.312 3.77186C14.3983 4.01433 14.5345 4.23599 14.7118 4.42253C14.8891 4.60907 15.1036 4.75633 15.3414 4.85482C15.5791 4.9533 15.8349 5.00081 16.0922 4.99427C16.3495 4.98773 16.6025 4.9273 16.835 4.81686L18.395 4.07586C19.958 3.33286 21.589 4.96386 20.846 6.52686L20.105 8.08686C19.9942 8.31928 19.9335 8.57237 19.9269 8.82974C19.9202 9.08711 19.9676 9.34301 20.0661 9.58087C20.1646 9.81874 20.312 10.0332 20.4987 10.2105C20.6855 10.3878 20.9073 10.5238 21.15 10.6099L22.777 11.1879C24.407 11.7679 24.407 14.0739 22.777 14.6549L21.15 15.2339C20.9075 15.3202 20.6859 15.4564 20.4993 15.6337C20.3128 15.811 20.1655 16.0255 20.067 16.2632C19.9685 16.501 19.921 16.7568 19.9276 17.0141C19.9341 17.2714 19.9946 17.5244 20.105 17.7569L20.846 19.3169C21.589 20.8799 19.958 22.5109 18.395 21.7679L16.835 21.0269C16.6026 20.9162 16.3496 20.8556 16.0923 20.849C15.8351 20.8423 15.5792 20.8897 15.3414 20.9881C15.1036 21.0865 14.8891 21.2337 14.7118 21.4202C14.5345 21.6067 14.3983 21.8284 14.312 22.0709L13.733 23.6989C13.153 25.3289 10.847 25.3289 10.267 23.6989L9.68799 22.0709C9.60158 21.8285 9.46531 21.6069 9.28795 21.4205C9.1106 21.2341 8.89611 21.0869 8.65835 20.9885C8.42059 20.8901 8.16483 20.8427 7.9076 20.8493C7.65037 20.8559 7.39739 20.9164 7.16499 21.0269L5.60499 21.7669C4.04199 22.5109 2.41099 20.8799 3.15399 19.3169L3.89499 17.7569C4.00576 17.5243 4.06647 17.2711 4.07318 17.0136C4.07989 16.7561 4.03246 16.5 3.93395 16.262C3.83545 16.024 3.68806 15.8093 3.50134 15.6318C3.31461 15.4544 3.09271 15.3181 2.84999 15.2319L1.22299 14.6539C-0.407012 14.0739 -0.407012 11.7669 1.22299 11.1869L2.84999 10.6089C3.09271 10.5229 3.31469 10.3869 3.50155 10.2097C3.68842 10.0325 3.83601 9.81812 3.93479 9.58031C4.03357 9.3425 4.08134 9.08661 4.075 8.82918C4.06866 8.57175 4.00836 8.31852 3.89799 8.08586L3.15599 6.52586C2.41299 4.96186 4.04399 3.33086 5.60799 4.07386L7.16799 4.81586C7.40034 4.92615 7.65324 4.9865 7.91035 4.99301C8.16747 4.99953 8.42309 4.95207 8.66074 4.8537C8.89838 4.75532 9.11275 4.60822 9.29004 4.42188C9.46732 4.23554 9.60357 4.01411 9.68999 3.77186L10.268 2.14486C10.846 0.514863 13.152 0.514863 13.732 2.14486H13.733Z" fill="#FF884D"/>
</g>
<defs>
<clipPath id="clip0_4_2774">
<rect width="24" height="24" fill="white" transform="translate(0 0.921875)"/>
</clipPath>
</defs>
</svg>
