<svg width="122" height="122" viewBox="0 0 122 122" fill="none" xmlns="http://www.w3.org/2000/svg">
<path d="M60.4015 111.238C88.5047 111.238 111.287 88.4559 111.287 60.3526C111.287 32.2495 88.5047 9.46729 60.4015 9.46729C32.2982 9.46729 9.51611 32.2495 9.51611 60.3526C9.51611 88.4559 32.2982 111.238 60.4015 111.238Z" fill="#0C513F" stroke="white" stroke-width="1.31351" stroke-miterlimit="10"/>
<path d="M32.624 52.9267C36.975 52.1713 41.638 51.4555 45.6475 53.2944C49.7687 55.1825 52.3562 59.4778 53.4038 63.8879C54.1262 66.9418 54.0047 70.6492 51.5419 72.5866C49.7884 73.9691 47.3518 74.0347 45.1287 73.8082C42.853 73.5783 40.3803 72.9708 39.0471 71.1089C37.6482 69.1386 37.993 66.3966 39.0668 64.2458C39.7812 62.7776 40.824 61.4932 42.1142 60.4925C44.3504 58.7882 47.1908 58.1544 49.9263 57.5009C54.1951 56.4895 58.4345 55.3172 62.3422 53.3469C66.2499 51.3767 69.8226 48.5559 72.0753 44.8092C72.6511 43.9155 73.0616 42.9255 73.287 41.8865C73.5249 40.5859 73.3157 39.2432 72.6932 38.0766C72.0708 36.9101 71.0718 35.9886 69.859 35.4622C68.6462 34.9357 67.2908 34.8352 66.0136 35.1771C64.7365 35.519 63.6126 36.2832 62.8249 37.3451C60.789 40.0969 61.5311 44.0308 63.0646 47.0914C64.5981 50.1518 66.8312 52.9102 67.7079 56.2202C67.9739 57.225 68.1282 58.3087 68.7751 59.123C69.7931 60.4037 71.7305 60.5811 73.2771 60.0196C75.3952 59.2446 76.9517 57.3367 77.7398 55.2252C78.5279 53.1138 78.6232 50.8085 78.518 48.5592C78.4598 46.228 78.0468 43.9193 77.2933 41.7125C76.1899 38.7079 74.213 36.0579 73.3067 32.9876C72.4004 29.9172 72.9784 25.98 75.8122 24.4924C76.8663 23.9374 78.0846 23.8028 79.2734 23.7863C82.8625 23.7437 86.629 24.8668 88.9966 27.5562C90.7206 29.5264 91.558 32.1207 91.8272 34.7116C92.2114 38.4157 91.4627 42.3265 89.2461 45.3148C87.9589 47.0519 86.189 48.4935 85.4206 50.513C84.8558 51.9841 84.8788 53.6425 84.2089 55.0676C83.0694 57.491 80.229 58.6207 77.5691 58.9392C74.9092 59.2577 72.1738 58.9951 69.5829 59.6616C67.0577 60.3184 64.8215 61.8124 62.3094 62.5152C60.1979 63.103 57.9682 63.1096 55.778 63.0111C52.6715 62.8699 49.4993 62.5054 46.7081 61.1295C42.0452 58.8308 38.9486 53.3995 39.914 48.2899C40.3902 45.7844 41.7267 43.535 43.0895 41.3776C46.5735 35.8575 50.849 30.1898 57.1111 28.3443C62.4637 26.7647 68.2135 28.318 73.4446 30.2686C75.9206 31.1946 78.4688 32.2815 80.1698 34.3075C80.878 35.2153 81.4889 36.1948 81.9923 37.2302C85.2148 43.3598 88.2304 49.5903 91.0391 55.9214C92.369 58.9195 93.6169 62.5414 91.8502 65.3065C90.4743 67.4639 87.6864 68.2619 85.1283 68.3242C81.7461 68.403 77.904 67.0535 76.7416 63.8747C76.1604 62.2756 76.3672 60.4728 75.7728 58.8801C75.1784 57.2875 73.0834 56.0002 71.8126 57.1299C71.4096 57.5438 71.1308 58.0626 71.0081 58.6273C70.4636 60.3533 70.4135 62.1973 70.8636 63.9503C71.5795 66.4886 73.5267 68.5113 74.4593 70.9808C74.978 72.3946 75.155 73.9111 74.9758 75.4062C74.7966 76.9015 74.2663 78.3331 73.4282 79.5844C71.9176 81.8009 69.1758 83.3508 66.5553 82.7729C63.3109 82.0537 61.4392 78.2511 62.004 74.9771C62.5687 71.7033 64.989 69.0237 67.7308 67.1487C68.5124 66.6134 69.3432 66.1109 69.9178 65.3622C70.4925 64.6135 70.7487 63.52 70.2462 62.7156C69.9373 62.2863 69.5281 61.939 69.0542 61.7041C67.1604 60.595 65.1422 59.7131 63.0416 59.0771C61.4326 58.5911 58.1849 58.7258 53.7912 53.636C49.1185 48.2243 45.4735 41.4465 45.7558 34.301C45.8675 31.5066 46.6982 28.5478 48.8722 26.7844C51.046 25.0211 54.783 25.09 56.2574 27.4675C56.6465 28.1574 56.9131 28.9097 57.0455 29.6906C58.124 34.6988 57.7827 39.9088 56.0603 44.7336C54.1131 50.1518 50.5075 54.8213 48.1793 60.0951C45.851 65.3688 45.0367 71.9528 48.488 76.5632" stroke="#E2BF88" stroke-width="2.62702" stroke-linecap="round" stroke-linejoin="round"/>
<path d="M93.3091 86.7634C95.3779 81.3681 99.903 69.1394 88.8169 56.6117C85.2704 52.6056 80.4795 49.3875 75.1334 49.1609C70.0666 48.954 65.1376 51.3314 61.4105 54.7695C57.6835 58.2076 55.0138 62.6342 52.7315 67.1625C51.8843 68.8372 51.0634 70.6499 51.2768 72.5118C51.4279 73.8253 52.0714 75.0042 52.7807 76.124C56.3141 81.6341 61.5911 85.7651 66.8354 89.6826C70.2735 92.2506 74.0038 94.8776 78.2891 95.1272C79.5337 95.1994 80.8406 95.0484 81.9013 94.3785C82.962 93.7086 83.6843 92.4345 83.4315 91.2129C83.2241 90.4634 82.8099 89.7874 82.2362 89.2624C78.9196 85.8473 73.7936 84.7997 69.0421 85.0789C64.2904 85.3579 59.6833 86.7666 54.9842 87.5351C53.9991 87.6927 52.9515 87.8077 52.1207 87.2888C51.1028 86.632 50.8071 85.3185 50.5773 84.143C49.4602 78.7181 47.3061 73.5602 44.2331 68.9522C42.8736 66.9195 41.2777 64.8868 40.9493 62.4602C40.4173 58.6313 47.0473 39.6018 60.3236 36.4428C63.7748 35.6219 71.8168 35.3033 76.7917 36.4888C82.4431 37.8319 88.2094 42.1303 90.1239 45.6834C95.9329 56.441 83.7895 61.81 81.1526 61.8888C78.0112 61.9827 74.8833 61.4388 71.9581 60.2896C68.7005 59.0056 65.7845 57.0058 62.7371 55.2818C57.7772 52.4773 52.4466 50.3857 46.9028 49.0689C44.0327 48.3892 32.2013 44.4881 28.4414 58.1485C25.7619 67.8718 33.065 78.2092 34.8251 79.9824C39.6325 84.8227 47.2772 77.664 48.0587 76.8694C49.6743 75.2275 49.451 72.4034 48.1605 70.4956C46.8699 68.5877 45.3956 65.7965 43.3727 64.6965C36.0598 60.6836 32.4706 67.2742 32.0766 68.2363C30.6534 71.6878 29.8635 75.3675 29.7451 79.0991C29.6762 82.3828 30.9403 95.5179 48.1342 91.2261C50.0003 90.7052 51.8141 90.0127 53.5525 89.1573C55.5818 88.228 57.6342 87.2822 59.3681 85.8735C60.6389 84.849 61.7127 83.5978 62.9802 82.5897C64.279 81.6297 65.6798 80.8159 67.1571 80.163C73.4324 77.1649 90.7773 68.5779 90.866 82.1168C90.8988 87.0622 87.3655 91.5512 83.3921 94.4967C78.138 98.388 70.9631 99.314 64.7107 97.4061C58.4584 95.4982 53.1781 90.9601 49.845 85.3317C49.2671 84.3465 48.7286 83.322 47.8748 82.5668C47.021 81.8114 45.7666 81.3878 44.7322 81.8607C44.3805 82.0449 44.0693 82.2975 43.8166 82.6037C43.564 82.91 43.3751 83.2635 43.2611 83.6438C42.1643 86.8028 44.7322 90.0307 47.4052 92.0437C50.3902 94.2898 54.1501 96.0696 57.782 95.1863C61.4729 94.2865 64.0014 90.9174 67.3378 89.1113C69.8432 87.7486 72.7659 87.2789 75.2188 85.8276C77.9443 84.2349 79.8785 81.5915 81.5926 78.9316C83.1393 76.5377 84.6104 73.9895 84.9815 71.1655C85.4018 67.9703 84.6072 64.68 83.2871 61.7411C80.7585 56.1159 76.3451 54.7695 73.4357 54.3723C69.3824 53.8137 65.2785 53.719 61.2036 54.0898C56.9019 54.4806 52.2389 55.6431 49.7104 59.1534C46.3971 63.7704 48.4528 70.6467 52.7545 74.377C55.9579 77.1438 60.1185 78.5443 64.343 78.2781C66.4337 78.1234 68.4688 77.5313 70.3162 76.5403C72.1636 75.5492 73.7825 74.1813 75.0678 72.5249C75.9576 71.4268 76.5602 70.1245 76.8213 68.7355C77.0123 67.4716 76.7969 66.1798 76.2059 65.0465C75.6149 63.9132 74.6792 62.997 73.5335 62.4302C72.3879 61.8635 71.0918 61.6754 69.8323 61.8933C68.5729 62.1111 67.4153 62.7236 66.5267 63.6424C65.2131 64.9952 64.622 66.8604 64.0506 68.6501C63.4793 70.4398 62.8455 72.3017 61.4958 73.6086C60.1462 74.9155 57.8476 75.4475 56.3798 74.2653C54.774 72.9748 55.0301 69.4316 55.0662 67.3694C55.1385 62.6013 49.0701 60.5162 47.2608 65.0314C45.4842 69.4612 43.1987 74.4952 45.4974 78.6787C47.4906 82.3106 51.9434 83.6603 55.9562 84.688" stroke="#E2BF88" stroke-width="2.62702" stroke-linecap="round" stroke-linejoin="round"/>
<path d="M104.886 67.3143C100.68 68.6541 96.1614 70.0037 91.9352 68.7329C87.594 67.4193 84.4416 63.5215 82.803 59.2986C81.6701 56.376 81.2793 52.6851 83.4598 50.4324C85.0097 48.8233 87.4003 48.426 89.6464 48.3472C91.945 48.2618 94.4669 48.5245 96.0399 50.1861C97.6818 51.933 97.7311 54.7079 96.9626 56.9901C96.4537 58.542 95.5955 59.9564 94.4539 61.1243C92.4836 63.1176 89.7449 64.1356 87.1277 65.1568C83.0526 66.7429 78.9971 68.4866 75.3981 70.9691C71.799 73.4517 68.6434 76.742 66.9226 80.7647C66.4762 81.729 66.2059 82.7656 66.1247 83.8251C66.0674 85.1457 66.4588 86.4468 67.2349 87.5168C68.0111 88.5867 69.1264 89.3625 70.3996 89.718C71.6727 90.0735 73.0286 89.9878 74.2469 89.4746C75.465 88.9616 76.4738 88.0514 77.1089 86.8922C78.7509 83.8875 77.4767 80.0948 75.5393 77.2707C73.6018 74.4467 71.0109 72.0167 69.6876 68.8609C69.2869 67.902 68.9849 66.8513 68.2329 66.1321C67.0507 65.0025 65.0936 65.0977 63.652 65.8628C61.662 66.9202 60.3683 69.0251 59.8888 71.2219C59.4094 73.4188 59.6163 75.7175 60.0267 77.9307C60.4065 80.2314 61.1328 82.4612 62.1809 84.5443C63.6849 87.3749 66.0032 89.7261 67.3233 92.6454C68.6434 95.5646 68.6105 99.5413 66.0098 101.403C65.041 102.096 63.8523 102.388 62.6767 102.576C59.1302 103.107 55.2456 102.513 52.5266 100.172C50.5564 98.4707 49.3676 96.0014 48.7469 93.4696C47.8571 89.8574 48.064 85.8807 49.8503 82.6134C50.8847 80.7186 52.4412 79.0472 52.9305 76.9424C53.2852 75.4088 53.0356 73.7669 53.5019 72.263C54.2999 69.7082 56.9629 68.1976 59.5506 67.5178C62.1382 66.8381 64.8867 66.7265 67.3627 65.7085C69.7763 64.7234 71.786 62.9271 74.1765 61.8895C76.1895 61.016 78.3962 60.704 80.5799 60.5037C83.6765 60.218 86.8684 60.1458 89.8204 61.1243C94.7461 62.7663 98.5684 67.7182 98.309 72.9132C98.1809 75.4613 97.1662 77.8716 96.1121 80.1933C93.4162 86.1402 89.955 92.3432 84.0048 95.0261C78.9183 97.3248 73.0107 96.5727 67.563 95.3545C64.9819 94.7798 62.309 94.0409 60.3387 92.2742C59.5116 91.4734 58.7729 90.586 58.1352 89.6275C54.1028 84.0035 50.2619 78.2459 46.6125 72.3548C44.8852 69.5669 43.1547 66.1485 44.5207 63.1603C45.5913 60.8321 48.2413 59.6565 50.7599 59.246C54.0995 58.7075 58.0992 59.5154 59.6754 62.5068C60.47 64.0108 60.5127 65.8267 61.3172 67.3241C62.1218 68.8215 64.3745 69.8067 65.4778 68.5128C65.8205 68.0478 66.0263 67.4961 66.0722 66.9202C66.3749 65.1368 66.1724 63.3044 65.4877 61.6301C64.427 59.21 62.2235 57.4761 60.9626 55.1578C60.2545 53.8282 59.8707 52.3501 59.8427 50.844C59.8148 49.3381 60.1434 47.8467 60.8017 46.4919C61.997 44.0914 64.5025 42.1802 67.1756 42.3937C70.4856 42.6597 72.863 46.1733 72.7579 49.4932C72.6529 52.8131 70.6169 55.7981 68.1607 58.031C67.4612 58.6681 66.7027 59.2789 66.2397 60.1031C65.7767 60.9273 65.6683 62.0405 66.2724 62.7695C66.6363 63.1497 67.0871 63.436 67.586 63.6037C69.6143 64.4444 71.735 65.0418 73.904 65.3834C75.5622 65.6429 78.7607 65.055 83.8111 69.5046C89.1801 74.2266 93.7216 80.4396 94.4177 87.5653C94.6903 90.35 94.2699 93.3973 92.3621 95.4464C90.4542 97.4954 86.7403 97.9322 84.9539 95.7748C84.4738 95.1436 84.1051 94.4351 83.8637 93.6798C82.1176 88.8642 81.7479 83.6572 82.7964 78.6433C83.9851 73.0084 86.9143 67.889 88.4872 62.3492C90.0602 56.8095 89.9747 50.1697 85.9258 46.0748" stroke="#FFEDB3" stroke-width="2.62702" stroke-linecap="round" stroke-linejoin="round"/>
<path d="M83.9657 20.4676C78.541 18.4776 66.2333 14.1365 53.8864 25.4098C49.9459 29.0219 46.7803 33.8523 46.639 39.2016C46.5077 44.2684 48.9574 49.1613 52.4513 52.8391C55.9453 56.5169 60.4014 59.1144 64.9724 61.3408C66.6603 62.1584 68.486 62.9532 70.3447 62.7101C71.6581 62.5426 72.8239 61.8794 73.9174 61.1569C79.3718 57.5448 83.4239 52.202 87.2626 46.8987C89.7813 43.4245 92.3492 39.6548 92.5364 35.3661C92.5922 34.1215 92.4182 32.818 91.7352 31.7737C91.0522 30.7295 89.7648 30.0234 88.5466 30.2927C87.8007 30.5115 87.1315 30.936 86.6157 31.5176C83.2499 34.8834 82.2778 40.0258 82.6259 44.7741C82.9741 49.5225 84.455 54.1067 85.2957 58.7926C85.4664 59.758 85.5977 60.8186 85.0888 61.6593C84.4648 62.6872 83.1415 62.9893 81.9692 63.2487C76.5575 64.4428 71.4281 66.6729 66.8638 69.8162C64.8508 71.2053 62.8412 72.8176 60.4211 73.1887C56.5987 73.7798 37.4741 67.4322 34.118 54.2019C33.2446 50.7638 32.8045 42.7251 33.9145 37.737C35.1754 32.0659 39.3885 26.2438 42.9054 24.2735C53.5744 18.307 59.124 30.365 59.2422 33.0018C59.384 36.1395 58.8868 39.2731 57.7809 42.2128C56.5462 45.4966 54.5924 48.452 52.911 51.5091C50.1807 56.5059 48.1698 61.8632 46.9379 67.4223C46.3008 70.3023 42.5738 82.1993 56.2868 85.7491C66.0527 88.2809 76.2784 80.8235 78.0287 79.0371C82.7967 74.1573 75.5231 66.6211 74.7153 65.8527C73.0505 64.2601 70.2297 64.5392 68.3415 65.8527C66.4534 67.1662 63.6818 68.6866 62.6146 70.7259C58.7496 78.1045 65.3763 81.5951 66.3549 81.9761C69.8278 83.3446 73.5182 84.0786 77.2504 84.1434C80.5341 84.1663 93.6693 82.7018 89.1016 65.5802C88.5532 63.7226 87.8343 61.9198 86.954 60.1948C85.9918 58.1818 85.0165 56.1426 83.5881 54.4284C82.5438 53.174 81.2895 52.1298 80.2551 50.8524C79.2761 49.5687 78.4414 48.1812 77.766 46.7149C74.6759 40.4757 65.8294 23.2687 79.3685 22.9765C84.2941 22.8713 88.852 26.3358 91.8468 30.2631C95.8202 35.4581 96.8513 42.62 95.0354 48.9019C93.2194 55.1837 88.7436 60.5396 83.1678 63.9514C82.199 64.5458 81.1745 65.1008 80.4324 65.961C79.6902 66.8214 79.2863 68.0857 79.7756 69.1135C79.9646 69.4624 80.2215 69.77 80.531 70.0181C80.8407 70.2662 81.1968 70.4499 81.5784 70.5584C84.7571 71.6058 87.9457 68.992 89.9159 66.2894C92.1194 63.2716 93.8401 59.4855 92.9042 55.8667C91.9519 52.1889 88.5564 49.7097 86.688 46.4029C85.2891 43.9171 84.7735 41.0044 83.2992 38.5645C81.6573 35.862 78.9941 33.9672 76.3179 32.2958C73.9043 30.7819 71.3331 29.3404 68.5025 29.012C65.327 28.641 62.0433 29.4882 59.1207 30.8509C53.5383 33.478 52.2511 37.8946 51.8964 40.7942C51.4007 44.8558 51.3676 48.9605 51.7978 53.0296C52.251 57.3247 53.4857 61.9712 57.0322 64.4374C61.6984 67.685 68.5582 65.5244 72.2098 61.1536C74.9252 57.9117 76.2631 53.7354 75.9369 49.5192C75.7512 47.4309 75.1292 45.4047 74.111 43.5721C73.0927 41.7393 71.7011 40.1407 70.0261 38.8797C68.915 38.0063 67.6034 37.4238 66.2104 37.1853C64.9441 37.0142 63.6563 37.2499 62.5327 37.8585C61.4092 38.4672 60.5082 39.4173 59.9601 40.5715C59.4118 41.7256 59.2447 43.0243 59.4828 44.2797C59.7209 45.5351 60.3519 46.6822 61.2848 47.5555C62.6541 48.8394 64.5291 49.4108 66.3285 49.9526C68.1281 50.4945 69.9965 51.1052 71.3233 52.4352C72.6499 53.7651 73.2147 56.0474 72.0621 57.5381C70.7945 59.1801 67.248 58.9634 65.1891 58.9634C60.4211 58.9634 58.4246 65.0613 62.966 66.805C67.422 68.5125 72.4889 70.7225 76.6397 68.3615C80.2518 66.3157 81.5259 61.8432 82.4913 57.8173" stroke="#FFEDB3" stroke-width="2.62702" stroke-linecap="round" stroke-linejoin="round"/>
<path d="M42.9979 95.1328C48.774 95.2739 61.8139 95.4381 69.9019 80.7957C72.4895 76.1131 73.9212 70.5208 72.3352 65.408C70.8344 60.5644 66.9432 56.7191 62.4576 54.3581C57.9719 51.997 52.9017 50.9693 47.871 50.3321C46.0091 50.0957 44.0257 49.9315 42.3411 50.7557C41.1656 51.3338 40.2625 52.3386 39.458 53.3828C35.4518 58.558 33.3271 64.9121 31.393 71.1677C30.1254 75.2692 28.9007 79.6629 30.1025 83.784C30.4505 84.9826 31.0285 86.1614 32.0137 86.9266C32.9988 87.6917 34.4403 87.9543 35.5076 87.3075C36.1459 86.8625 36.6447 86.2453 36.9459 85.5277C39.0507 81.2588 38.3217 76.0803 36.4665 71.6931C34.6111 67.306 31.741 63.441 29.4425 59.2739C28.9696 58.4135 28.5033 57.4514 28.7167 56.4925C28.9761 55.3202 30.1321 54.6076 31.1598 53.9838C35.8973 51.115 40.0353 47.3572 43.3459 42.9174C44.8105 40.9471 46.1963 38.7832 48.3669 37.6633C51.7984 35.8802 71.9476 35.7522 79.3755 47.1863C81.3064 50.1647 84.3012 57.6386 84.8497 62.7186C85.4768 68.4948 83.3588 75.3677 80.6562 78.3592C72.4664 87.4355 63.3441 77.7944 62.382 75.3381C61.2434 72.4107 60.7094 69.283 60.8123 66.1435C60.9273 62.6431 61.8369 59.2247 62.4543 55.7767C63.4358 50.164 63.6204 44.4408 63.0026 38.7765C62.6743 35.8475 62.3919 23.3888 48.2617 24.4231C38.2003 25.1588 30.9103 35.5027 29.8267 37.7553C26.8713 43.9091 36.184 48.71 37.1955 49.1828C39.284 50.168 41.8715 48.9957 43.2343 47.1403C44.597 45.285 46.7381 42.9601 47.0961 40.6877C48.3899 32.4586 40.9914 31.2797 39.9407 31.2337C36.2124 31.049 32.4814 31.5385 28.9269 32.6786C25.8007 33.7163 13.8445 39.3085 23.6728 54.0626C24.7888 55.6453 26.0486 57.1216 27.436 58.4726C28.9925 60.0719 30.5721 61.6907 32.4734 62.8565C33.8657 63.707 35.4025 64.3013 36.7784 65.1715C38.1179 66.0737 39.3544 67.1198 40.4661 68.2911C45.3918 73.2004 59.2952 86.6803 46.5673 91.2776C41.9208 92.9655 36.5059 91.1396 32.4011 88.3846C26.973 84.7396 23.6958 78.287 23.4003 71.7556C23.1048 65.2241 25.6234 58.7124 29.8102 53.6948C30.5392 52.8245 31.3273 51.9674 31.7542 50.9167C32.1811 49.8659 32.1614 48.536 31.37 47.7183C31.0793 47.4475 30.7369 47.2382 30.3634 47.1028C29.9899 46.9674 29.5929 46.9087 29.1962 46.9302C25.85 46.9564 23.6728 50.4537 22.6713 53.6488C21.5516 57.215 21.1378 61.3526 23.1869 64.4853C25.2687 67.6606 29.2815 68.9184 32.1122 71.4534C34.2334 73.3547 35.6553 75.9522 37.8358 77.7878C40.2526 79.8238 43.3886 80.7597 46.4623 81.4853C49.2338 82.1421 52.1268 82.674 54.9147 82.0764C58.0671 81.4197 60.8978 79.5512 63.2227 77.3216C67.6787 73.0526 67.4653 68.4554 66.871 65.5853C66.0359 61.5792 64.7469 57.6814 63.0289 53.9673C61.2195 50.0464 58.5597 46.0403 54.4123 44.8417C48.9514 43.2655 43.1424 47.5114 41.0867 52.8115C39.552 56.7553 39.6262 61.144 41.2936 65.0336C42.1392 66.9524 43.3787 68.6721 44.9315 70.0813C46.4843 71.4904 48.3159 72.5576 50.3076 73.2136C51.6399 73.6855 53.069 73.8163 54.4649 73.5944C55.7199 73.3511 56.8652 72.7151 57.7349 71.778C58.6047 70.841 59.1538 69.6515 59.3029 68.3818C59.4521 67.112 59.1936 65.8278 58.5647 64.7147C57.9358 63.6017 56.9692 62.7174 55.8046 62.1899C54.0937 61.4117 52.1366 61.474 50.2583 61.5331C48.3799 61.5922 46.413 61.6218 44.7284 60.7877C43.0438 59.9537 41.773 57.9637 42.3903 56.1905C43.0669 54.2431 46.4918 53.2942 48.4457 52.6341C52.9608 51.1039 52.8952 44.6873 48.0319 44.4936C43.2639 44.3064 37.7537 43.8369 34.5684 47.4063C31.8166 50.5029 32.0334 55.1494 32.4109 59.2739" stroke="#FFEDB3" stroke-width="2.62702" stroke-linecap="round" stroke-linejoin="round"/>
<path d="M87.4861 55.3423C88.8608 55.3423 89.9752 54.3145 89.9752 53.0468C89.9752 51.7792 88.8608 50.7515 87.4861 50.7515C86.1114 50.7515 84.9971 51.7792 84.9971 53.0468C84.9971 54.3145 86.1114 55.3423 87.4861 55.3423Z" fill="#ED5E3B"/>
<path d="M48.5735 96.5595C49.9482 96.5595 51.0627 95.5318 51.0627 94.2641C51.0627 92.9965 49.9482 91.9688 48.5735 91.9688C47.1989 91.9688 46.0845 92.9965 46.0845 94.2641C46.0845 95.5318 47.1989 96.5595 48.5735 96.5595Z" fill="#ED5E3B"/>
<path d="M90.3763 87.3739C91.751 87.3739 92.8653 86.3463 92.8653 85.0786C92.8653 83.8108 91.751 82.7832 90.3763 82.7832C89.0016 82.7832 87.8872 83.8108 87.8872 85.0786C87.8872 86.3463 89.0016 87.3739 90.3763 87.3739Z" fill="#ED5E3B"/>
<path d="M21.5315 63.2562C22.9062 63.2562 24.0207 62.2285 24.0207 60.9609C24.0207 59.6932 22.9062 58.6655 21.5315 58.6655C20.1569 58.6655 19.0425 59.6932 19.0425 60.9609C19.0425 62.2285 20.1569 63.2562 21.5315 63.2562Z" fill="#ED5E3B"/>
<path d="M47.9134 51.7113C49.2881 51.7113 50.4026 50.6837 50.4026 49.416C50.4026 48.1482 49.2881 47.1206 47.9134 47.1206C46.5387 47.1206 45.4243 48.1482 45.4243 49.416C45.4243 50.6837 46.5387 51.7113 47.9134 51.7113Z" fill="#ED5E3B"/>
<path d="M92.1899 38.9999C93.5645 38.9999 94.6789 37.9723 94.6789 36.7045C94.6789 35.4369 93.5645 34.4092 92.1899 34.4092C90.8152 34.4092 89.7007 35.4369 89.7007 36.7045C89.7007 37.9723 90.8152 38.9999 92.1899 38.9999Z" fill="#ED5E3B"/>
<path d="M43.1399 27.5014C44.5146 27.5014 45.6291 26.4737 45.6291 25.2061C45.6291 23.9384 44.5146 22.9106 43.1399 22.9106C41.7653 22.9106 40.6509 23.9384 40.6509 25.2061C40.6509 26.4737 41.7653 27.5014 43.1399 27.5014Z" fill="#ED5E3B"/>
<path d="M67.1575 69.4467C68.5322 69.4467 69.6466 68.419 69.6466 67.1513C69.6466 65.8836 68.5322 64.856 67.1575 64.856C65.7828 64.856 64.6685 65.8836 64.6685 67.1513C64.6685 68.419 65.7828 69.4467 67.1575 69.4467Z" fill="#ED5E3B"/>
<path d="M71.122 101.86C71.7487 101.601 71.7666 100.206 71.1619 98.7449C70.5572 97.2836 69.5589 96.3093 68.9322 96.5687C68.3055 96.828 68.2876 98.2228 68.8923 99.684C69.4969 101.145 70.4952 102.12 71.122 101.86Z" fill="#FFC501"/>
<path d="M27.6645 44.1378C28.2912 43.8784 28.3091 42.4836 27.7044 41.0223C27.0997 39.5611 26.1014 38.5867 25.4747 38.846C24.8479 39.1053 24.8301 40.5002 25.4347 41.9615C26.0395 43.4228 27.0377 44.3971 27.6645 44.1378Z" fill="#FFC501"/>
<path d="M98.2244 48.4879C98.8511 48.2285 98.869 46.8337 98.2644 45.3724C97.6597 43.9112 96.6615 42.9367 96.0347 43.1961C95.408 43.4554 95.3901 44.8503 95.9948 46.3116C96.5995 47.7729 97.5977 48.7472 98.2244 48.4879Z" fill="#FFC501"/>
<path d="M26.831 75.5524C28.2006 74.7616 29.0359 73.6445 28.6968 73.057C28.3576 72.4696 26.9724 72.6345 25.6029 73.4252C24.2333 74.2158 23.398 75.3331 23.7371 75.9204C24.0762 76.5079 25.4614 76.3431 26.831 75.5524Z" fill="#FFC501"/>
<path d="M63.0938 54.609C64.4633 53.8183 65.2986 52.7011 64.9595 52.1137C64.6204 51.5262 63.2352 51.6911 61.8656 52.4818C60.496 53.2725 59.6607 54.3897 59.9998 54.9771C60.339 55.5645 61.7242 55.3997 63.0938 54.609Z" fill="#FFC501"/>
<path d="M88.8534 75.5274C90.223 74.7367 91.0583 73.6195 90.7192 73.0321C90.3801 72.4447 88.9949 72.6095 87.6253 73.4003C86.2558 74.191 85.4205 75.3081 85.7596 75.8956C86.0987 76.483 87.4839 76.3182 88.8534 75.5274Z" fill="#FFC501"/>
<path d="M62.7415 19.8681C62.8588 19.2 61.6913 18.4368 60.1336 18.1633C58.576 17.8897 57.2182 18.2095 57.1009 18.8776C56.9836 19.5457 58.1512 20.3089 59.7088 20.5825C61.2664 20.856 62.6242 20.5362 62.7415 19.8681Z" fill="#FFC501"/>
</svg>
