<svg width="14" height="11" viewBox="0 0 14 11" fill="none" xmlns="http://www.w3.org/2000/svg">
<path d="M13.7657 1.36407C13.2876 1.57032 12.7673 1.71876 12.2313 1.77657C12.7878 1.446 13.2045 0.923756 13.4032 0.307819C12.8811 0.618427 12.3091 0.836231 11.7126 0.951569C11.4633 0.685048 11.1618 0.472725 10.8268 0.327831C10.4919 0.182936 10.1307 0.108575 9.76572 0.109381C8.28916 0.109381 7.10166 1.30626 7.10166 2.77501C7.10166 2.98126 7.12666 3.18751 7.16729 3.38594C4.95635 3.27032 2.98447 2.21407 1.67354 0.596881C1.43467 1.00487 1.30949 1.46942 1.31104 1.94219C1.31104 2.86719 1.78135 3.68282 2.49854 4.16251C2.07589 4.14586 1.66313 4.02969 1.29385 3.82344V3.85626C1.29385 5.15157 2.20947 6.22501 3.42979 6.47188C3.20066 6.5314 2.96495 6.56185 2.72822 6.56251C2.55479 6.56251 2.39072 6.54532 2.2251 6.52188C2.5626 7.57813 3.54541 8.34532 4.71572 8.37032C3.8001 9.08751 2.65322 9.50938 1.40791 9.50938C1.18447 9.50938 0.978223 9.50157 0.76416 9.47657C1.94541 10.2344 3.34697 10.6719 4.85635 10.6719C9.75635 10.6719 12.4376 6.61251 12.4376 3.08907C12.4376 2.97344 12.4376 2.85782 12.4298 2.74219C12.9485 2.36251 13.4032 1.89219 13.7657 1.36407Z" fill="white"/>
</svg>
