<svg width="40" height="41" viewBox="0 0 40 41" fill="none" xmlns="http://www.w3.org/2000/svg">
<rect y="0.390625" width="40" height="40" rx="12" fill="#1DA1F2"/>
<g clip-path="url(#clip0_4_3112)">
<path d="M28.125 15.3574C27.5273 15.6152 26.877 15.8008 26.207 15.8731C26.9026 15.4598 27.4234 14.807 27.6719 14.0371C27.0192 14.4254 26.3042 14.6976 25.5586 14.8418C25.247 14.5087 24.8701 14.2432 24.4514 14.0621C24.0327 13.881 23.5812 13.7881 23.125 13.7891C21.2793 13.7891 19.7949 15.2852 19.7949 17.1211C19.7949 17.3789 19.8262 17.6367 19.877 17.8848C17.1133 17.7402 14.6484 16.4199 13.0098 14.3984C12.7112 14.9084 12.5547 15.4891 12.5566 16.0801C12.5566 17.2363 13.1445 18.2559 14.041 18.8555C13.5127 18.8347 12.9968 18.6895 12.5352 18.4316V18.4727C12.5352 20.0918 13.6797 21.4336 15.2051 21.7422C14.9187 21.8166 14.624 21.8547 14.3281 21.8555C14.1113 21.8555 13.9062 21.834 13.6992 21.8047C14.1211 23.125 15.3496 24.084 16.8125 24.1152C15.668 25.0117 14.2344 25.5391 12.6777 25.5391C12.3984 25.5391 12.1406 25.5293 11.873 25.4981C13.3496 26.4453 15.1016 26.9922 16.9883 26.9922C23.1133 26.9922 26.4648 21.918 26.4648 17.5137C26.4648 17.3691 26.4648 17.2246 26.4551 17.0801C27.1035 16.6055 27.6719 16.0176 28.125 15.3574Z" fill="white"/>
</g>
<defs>
<clipPath id="clip0_4_3112">
<rect width="20" height="20" fill="white" transform="translate(10 10.3906)"/>
</clipPath>
</defs>
</svg>
