<svg width="37" height="37" viewBox="0 0 37 37" fill="none" xmlns="http://www.w3.org/2000/svg">
<g clip-path="url(#clip0_4_3444)">
<path d="M16.2539 5.09473L17.8148 3.53379C18.4758 2.87285 19.5445 2.87285 20.1984 3.53379L33.8672 17.1955C34.5281 17.8564 34.5281 18.9252 33.8672 19.5791L20.1984 33.2479C19.5375 33.9088 18.4688 33.9088 17.8148 33.2479L16.2539 31.6869C15.5859 31.0189 15.6 29.9291 16.282 29.2752L24.7547 21.2033H4.54688C3.61172 21.2033 2.85938 20.451 2.85938 19.5158V17.2658C2.85938 16.3307 3.61172 15.5783 4.54688 15.5783H24.7547L16.282 7.50644C15.593 6.85254 15.5789 5.7627 16.2539 5.09473Z" fill="#8C77EC"/>
</g>
<defs>
<clipPath id="clip0_4_3444">
<rect width="36" height="36" fill="white" transform="translate(0.609375 0.390625)"/>
</clipPath>
</defs>
</svg>
